<?xml version="1.0" encoding="UTF-8"?> <!-- Creator: CorelDRAW 2018 (64-Bit) --> <svg xmlns="http://www.w3.org/2000/svg" xmlns:xlink="http://www.w3.org/1999/xlink" xml:space="preserve" width="760px" height="400px" style="shape-rendering:geometricPrecision; text-rendering:geometricPrecision; image-rendering:optimizeQuality; fill-rule:evenodd; clip-rule:evenodd" viewBox="0 0 760 400"> <defs> <style type="text/css"> <![CDATA[ .str0 {stroke:#FE1F50;stroke-miterlimit:22.9256} .fil2 {fill:none} .fil1 {fill:#8D8D8D} .fil0 {fill:#FBFBFB} ]]> </style> </defs> <g id="Слой_x0020_1"> <metadata id="CorelCorpID_0Corel-Layer"></metadata> <rect class="fil0" width="760" height="400"></rect> <g id="_2149186090080"> <path class="fil1" d="M485.82 174.3l2.26 0.01c-0.01,0.85 -0.01,1.62 -0.01,2.29 0,3.48 0.01,6.97 0.02,10.46 0.02,7.71 0.61,6.47 6.02,15.55 1.18,1.98 2.6,5.53 4.59,6.68 -0.2,-11.58 -0.08,-23.3 -0.06,-34.92l2.13 0.01 -0.02 34.09 5.04 0.06 0.08 -32.34c1.69,-0.83 4.36,-0.54 6.5,-0.53l0 -1.22 2.31 0.01 0 2.55c-0.31,0.4 -0.66,0.79 -1.03,1.2l-0.04 44.77 13.15 0.06 0.08 -44.83 -0.91 -0.58c-0.23,-0.17 -0.35,-0.23 -0.63,-0.49 -0.03,-0.56 -0.05,-1.46 -0.07,-2.63l2.3 0.01 0 1.17 6.79 -0.01c1.04,4.42 0.14,26.3 0.33,32.77l4.48 0.06 0.02 -33.93 2.12 0.01c-0.08,11.19 -0.42,23.06 0.07,33.96l2.52 0.07 0.31 1.39c-1.4,0.84 -2.1,0.49 -3.92,0.72l-0.02 44.83 11.19 0.08 -0.09 -7.46 -4.86 -0.26c0.04,-2.13 5.25,-6.53 6.92,-7.69l0.06 -29.62c-2.51,-0.01 -4.47,0.72 -4.02,-1.93 1.34,-0.21 2.15,0.04 2.44,-1.07 0,-3.77 -0.14,-18 -0.2,-32.96l2.51 0.01 -0.03 33.91 6.84 -0.01 0.24 2.47 3.23 -0.23 0.13 -8.42c-1.22,-0.44 -2.26,-0.31 -2.35,-2 -0.07,-1.16 0,-3 0.11,-4.16 1.18,-0.77 1.07,-0.51 2.7,-0.53 0.11,-4.27 0.49,-5.71 2.87,-7.97 2.6,-2.46 4.82,-1.81 8.97,-1.93 -0.71,-3.59 -2.42,-4.37 0.31,-8.54 0.95,-1.44 2.54,-6.95 2.69,-9.1 -3.15,-3.16 -2.83,-4.57 0.38,-7.25 1.71,-1.45 2.33,0.03 2.33,0.03 3.41,2.23 2.98,4.64 0.36,7.22 0.98,6.93 4.26,10.34 4.39,12.88 0.15,2.79 -0.79,2.94 -1.14,4.81 7.74,0.01 11.83,0.91 11.85,9.86 2.97,-0.03 2.84,0.14 2.86,3.05 0.02,3.5 0.14,2.51 -2.38,3.48 -0.63,1.76 -0.6,6.46 0,8.32 1.65,0.65 2.73,-0.14 4.16,0.72 1.08,2.06 -0.67,2.6 1.68,5.94l10.02 13.53c2.33,-0.62 10.5,-5.15 13.02,-6.47l9.61 -4.87c1.71,-0.89 2.27,-0.63 2.54,-2.53l-2.76 -1.05 -0.19 -5.37c3.57,-2.32 15.62,-6.91 20.12,-8.75 0.83,-0.71 2.15,0.09 2.15,0.09l18.27 7.72c2.08,-2.45 9.49,-16.36 11.81,-20.36 1.48,-2.54 0.41,-6.52 0.94,-9.92l1.72 -0.18c1.85,5.54 -2.06,5.27 2.9,12.83l15.48 23.99c1.12,1.66 1.93,3.86 3.68,4.72 -0.12,-0.97 -0.05,-2.12 -0.2,-2.91 -0.26,-1.49 -2.02,-3.01 -0.67,-6.67l4.3 -0.19 0.12 -8.44c-0.65,-0.34 0.34,-0.05 -0.98,-0.39 -0.23,-0.06 -0.99,-0.16 -1.36,-0.24 -1.02,-5.93 -0.21,-6.04 2.73,-6.09 -0.01,-10.11 4.86,-9.41 11.84,-9.91 -1.14,-3.44 -2.5,-4.76 0.12,-8.33 1.25,-1.69 2.75,-6.68 2.96,-9.27 -2.3,-2.46 -3.47,-5.13 0.34,-7.05 1.14,-1.55 2.23,-0.04 2.23,-0.04 3.99,1.89 3.06,4.66 0.49,7.09 1.08,9.1 6.42,10.62 2.94,17.59 6.84,0.58 11.93,-0.19 11.92,9.9l2.74 0.25 0.01 5.9 -2.21 0.27 -0.05 8.71c3.82,0.33 4.88,-0.58 4.75,3.71 -0.09,2.91 -0.55,0.95 -0.92,3.18 -0.25,1.52 -0.02,5.85 -0.02,7.67 -0.01,5.1 -0.02,10.2 -0.02,15.3 0.11,0.07 0.26,0.05 0.32,0.2 0.2,0.51 1.44,0.57 2.02,0.87l0.12 5.7c-1.85,1.53 -1.53,1.52 -1.53,4l-2.11 0.91 -0.02 2.68 -2.24 0.77 0.02 7.02c-0.81,1.61 -0.68,0.05 -1.19,2.02l-0.01 30.6c1.76,1.55 1.21,1.49 1.2,4.06l2.22 0.47 -0.01 5.32 -2.19 0.66c-0.03,5.93 -0.9,3.41 2.15,5.39l0.07 5.85c-1.08,1.14 -1.18,0.75 -1.06,2.82l1.83 0.7 0 5.34 -1.86 0.77c-0.03,5.55 -0.4,3.01 -1.18,4.86 -0.73,1.76 0.99,2.25 -1.36,4.23 -0.65,0.55 -0.2,0.12 -0.67,0.61l-0.02 43.49c0.43,0.97 -0.1,0.42 0.83,0.91 0.01,0 1.02,0.28 1.12,0.32l0.1 3.2 1.23 1.11 -0.05 14.5 -2.32 0 0 -12.92 -7.72 0.04 -0.04 12.17 0.01 0.71 -2.23 0c0.08,-2.42 -0.05,-5.36 -0.05,-7.56 -0.01,-5.49 -0.73,-6.87 1.2,-7.85l0.07 -3.36 1.93 -0.87 -0.06 -15.79 -18.94 0.13 0.02 15.66 1.98 0.81 0.07 3.22c1.01,0.88 0.43,0.12 1.23,1.21l0.06 14.4 -2.32 0 -0.07 -12.96 -7.88 0.09 0.05 12.87 -2.14 0c-0.02,-0.32 -0.05,-0.68 -0.06,-1.11l-0.03 -13.29c0.75,-1 0.8,-0.41 1.13,-1.64 0.16,-0.56 0.1,-1.8 0.19,-2.54l1.87 -1.06 -0.03 -43.89c-0.31,-0.36 -0.27,-0.29 -0.66,-0.66 -2.18,-2.09 -0.74,-1.93 -1.5,-4.07 -0.63,-1.78 -0.87,0.02 -0.97,-2.51 -0.02,-0.31 0.02,-1.41 -0.05,-1.64 -0.38,-1.23 0.14,-0.49 -0.95,-0.99 -1.61,0.74 -0.75,0.6 -0.97,3.02 -0.17,1.86 -0.55,0.76 -1,2.09 -1.25,3.73 0.84,1.65 -2.22,4.76l0.01 43.49c0.89,0.93 -0.52,0.01 0.9,0.91 0.06,0.04 0.89,0.35 1.09,0.44 0.2,5.41 0.77,2.78 1.24,4.29 -0.09,2.78 -0.04,5.66 -0.03,8.45 0.01,1.48 0.04,2.96 0.03,4.44 -0.01,0.56 -0.05,1.05 -0.06,1.51l-2.18 0 -0.01 -12.94 -7.84 -0.03 0 12.97 -2.21 0c-0.02,-0.32 -0.04,-0.68 -0.04,-1.1 -0.03,-1.75 -0.02,-3.5 -0.02,-5.25 0,-5.66 -0.8,-7.73 1.21,-9.21l0.06 -3.26 1.98 -0.82 -0.02 -43.89c-0.6,-0.62 -1.18,-0.95 -1.93,-1.64 -0.25,-7.88 -1.21,0.36 -1.32,-8.1l-3.3 -0.1c-0.07,3.24 0.38,3.76 -2.03,4.83l0.04 48.9 1.15 0.61c0.5,0.26 0.16,-0.02 0.79,0.37 0.07,3.71 -0.3,2.75 1.26,4.26l0.15 14.4 -2.36 0 -0.06 -12.93 -7.93 -0.04 0.06 12.97 -2.27 0 -0.01 -12.9 -7.8 -0.07 0.02 12.97 -2.38 0c-0.01,-2.65 -0.02,-5.3 -0.01,-7.96 0.01,-5.29 -0.7,-5.97 1.31,-7.63l0.15 -3.24c1.86,-0.83 1.24,0.4 1.88,-1.21 -0.06,-9.1 1.22,-25.27 -1.65,-32.51 -7.2,-18.18 -33.05,-18.54 -40.38,0.13 -2.59,6.6 -1.57,23.98 -1.51,32.38 0.27,1.22 1.16,0.34 1.81,1.47 0.8,1.39 -0.69,1.3 0.89,3.57 0.94,1.36 0.72,10.37 0.65,15l-2.44 0 -0.02 -12.92 -7.78 -0.02 0.03 12.94 -2.26 0 -0.05 -12.95 -8 0.19 0.02 12.76 -2.19 0c-0.03,-0.32 -0.05,-0.68 -0.05,-1.11l-0.03 -13.34 1.37 -1.08 0.09 -3.29 1.9 -0.82 0 -48.74c-0.64,-0.42 -1.3,-0.85 -1.86,-1.32l-0.15 -3.6 -3.3 -0.06c-0.15,6.92 -0.5,2.82 -1.13,5.43 -0.28,1.15 0.16,1.69 -0.43,2.75l-1.73 1.65 0 43.49c1.51,1.56 0.36,0.45 2.03,1.34l0.04 3.13 1.21 1.17c-0.01,2.81 -0.01,5.64 0,8.45 0,0.5 -0.01,3.78 0.07,5.95l-2.36 0 0 -12.85c-2.37,-0.23 -5.71,-0.49 -7.95,0.14l-0.01 9.98 -0.01 2.73 -2.05 0c0.1,-2.47 -0.03,-5.26 -0.02,-7.56 0,-1.62 0.01,-3.23 -0.01,-4.84 -0.03,-2.27 -0.23,-2.1 1.13,-3.17l0.11 -3.29c0.29,-0.1 0.83,-0.21 1.13,-0.33 0.67,-0.25 0.44,-0.16 0.83,-0.45l-0.02 -43.49c-0.67,-1.85 -0.8,-0.4 -1.65,-1.92 -0.66,-1.16 -0.22,-1.73 -0.46,-2.84 -0.44,-2.07 -0.79,-0.13 -1.06,-2.48 -0.18,-1.63 0.38,-1.44 -0.44,-2.97l-1.21 0.02 -0.45 1.73c-0.35,4.66 -0.5,1.08 -1.08,3.7 -0.28,1.23 0.25,1.96 -0.59,3.05 -0.92,1.17 -0.86,-0.18 -1.48,1.71l0 31.82c0,2.41 -0.01,4.83 0,7.24 0,0.8 -0.13,3.06 -0.05,3.66 0.28,1.99 -0.01,0.73 1.97,1.63 0.39,8.13 1.35,-0.35 1.24,6.79l0.1 11.99 -2.27 0 -0.04 -12.95 -7.88 0.05 -0.02 12.9 -2.22 0c0.09,-2.4 -0.03,-5.39 -0.04,-7.56 0,-5.39 -0.7,-6.46 1.27,-8.05l0.07 -3.07 1.96 -0.96 -0.05 -15.78 -18.85 -0.04 0 15.42 0.4 0.58c0.02,0.02 0.18,0.57 1.44,0.63l0.08 3.24c1.91,1.53 1.19,3.17 1.18,8.44 0,2.33 -0.06,4.75 -0.02,7.15l-2.25 0 -0.02 -12.98 -7.76 0.22 -0.03 12.76 -2.09 0c0.07,-2.88 -0.04,-5.95 -0.03,-8.76 0.01,-11.27 0.5,-2.01 1.15,-9.83 0.7,-0.56 0.23,-0.15 0.97,-0.54l0.94 -0.51 -0.03 -43.49c-0.35,-0.95 -0.27,-0.67 -0.88,-1.32 -1.86,-2.01 -0.66,-1.5 -1.16,-3.51 -0.53,-2.13 0.08,0.16 -0.78,-1.33 -0.89,-1.56 0.15,-1.82 -0.69,-4.19l-4.25 -0.09c-0.54,4.07 0.73,4.99 -2.42,5.1 -0.83,0.03 -1.59,-0.02 -2.49,0.03l-0.01 3.87 1.95 0.63 -0.03 5.64 -1.41 0.81 -0.5 50.86 1.94 0.78 0.08 5.85 -2.34 0 -0.02 -4.03 -8.14 0.06 0.01 3.97 -2.35 0 0.1 -5.96 1.88 -0.79 -0.04 -2.46 -37.58 -0.06 -0.01 4.33 3.2 0.03c0.47,1.64 0.26,2.95 0.25,4.63l0 0.28 -2.11 0 -0.05 -2.71 -15.2 0.05 -0.02 2.66 -2.32 0 0.13 -4.69 3.49 -0.3 0.22 -52.63 -16.3 0 1.37 52.65c5.2,0.11 3.19,0.25 3.5,4.97l-2.16 0 -0.05 -2.73 -15.19 0.1 -0.02 2.63 -2.31 0 0.08 -4.68 3.39 -0.36 0.55 -87.49c-0.36,-0.5 -0.21,-0.3 -0.58,-0.75 -0.01,-0.01 -0.37,-0.37 -0.48,-0.46l-0.07 -3.62c-2.82,-1.87 -4.21,-1.29 -8.26,-1.29 -7.61,0 -2.87,-0.24 -7.95,0.99 -0.19,3.11 0.55,3.09 -1.04,5.14l0.55 18.21 13.07 0.13c0.6,1.31 0.74,14.2 0.2,16.15 -2.12,0.91 -9.77,0.4 -12.76,0.4l1.32 52.66 3.4 0.05 0.09 4.92 -2.14 0 -0.07 -2.67 -15.2 0.01 0 2.66 -2.19 0c0.08,-1.19 -0.15,-2.66 0.2,-4.79l3.29 -0.19c-0.12,-16.88 0.59,-36.56 0.3,-52.61l-32.26 0.06 0.42 52.54 3.01 0.11c0.67,1.55 0.38,3.38 0.44,4.88l-2.21 0 -0.04 -2.73 -15.15 0.13 -0.04 2.6 -2.17 0c-0.02,-1.67 -0.11,-3.38 0.37,-4.87l3.01 -0.08 1.35 -52.67c-13.96,-0.07 -12.76,1.63 -12.76,-4.3 0.01,-3.02 -0.27,-10.32 0.28,-12.34l13.14 -0.06 0.31 -18.12c-0.59,-2.42 -0.85,1.75 -0.84,-5.42l-16.39 0.15c-0.03,0.9 0.05,2.41 -0.03,3.18 -0.16,1.36 -0.78,1.75 -0.78,1.75 -0.03,-0.07 -0.15,0.16 -0.28,0.25l0.75 87.64 3.22 0.31 0.03 4.58 -2.18 0 -0.06 -2.73 -15.15 0.11 -0.02 2.62 -2.32 0c0,-1.72 -0.17,-3.31 0.56,-4.85l3.01 -0.14 1.51 -52.62 -16.41 0 0.29 52.58 3.13 0.29c0.54,1.28 0.47,3.04 0.45,4.74l-2.33 0 -0.04 -2.71 -15.03 0 -0.04 2.71 -2.31 0c-0.05,-1.68 -0.18,-3.42 0.35,-4.88l3.08 -0.06 0.02 -4.33 -37.52 0.18 -0.04 2.47 1.82 0.72 0.14 5.9 -2.34 0 -0.01 -4.04 -8.16 0.09 -0.01 3.95 -2.26 0 0.09 -5.81c1.23,-0.86 1.4,-0.28 1.58,-0.79 0.05,-0.13 0.2,-0.09 0.32,-0.15l-0.01 -49.94c-0.23,-1.21 -0.94,-0.82 -1.97,-1.61l0.07 -5.51c2.13,-1.27 1.97,0.53 1.88,-4.63 -4.65,-0.13 -5.23,0.68 -4.7,-4.77l-6.13 0.09 0 4.69 2.65 0.24 -0.08 6.54c-2.06,0.34 -2.49,-0.44 -2.65,1.71l0.09 59.94 -2.34 0c0.44,-10.93 0.36,-58.9 -0.18,-61.46l-19.5 -0.03 0.11 61.49 -2.34 0 -0.05 -13.19c0,-6.85 0.55,-47.01 -0.33,-47.93l-89.05 -0.38 -0.14 61.5 -2.32 0 -0.12 -61.14c-2.85,-1.12 -15.47,-0.34 -19.68,-0.33l0.1 61.47 -2.46 0 0.09 -61.42c-3.65,-0.05 -2.81,-1.61 -2.77,-4.96 0.03,-2.43 0.4,-1.96 2.71,-2.03 0.64,-7.66 0.07,-24.33 0.07,-32.98l-0.02 -28.6c-0.01,-3.32 0.34,-1.41 0.9,-3.61 0.19,-1.78 -1.91,-4.7 -0.73,-8.3 0.34,-1.06 1.34,-1.45 0.56,-3.68 -0.63,-1.8 -0.66,0.33 -0.72,-4.15 -4.98,-0.39 -4.87,0.83 -4.71,-5.58 1.12,-1.03 5.13,-3.14 6.79,-3.93l0.07 -3.76 -2.04 -0.9c-0.32,-4.25 -1.06,-5.65 2.82,-5.73 0.01,-2.08 -0.53,-34.25 0.14,-35.82l0.51 -1.81c-0.67,-0.37 -0.22,0.06 -0.84,-0.44 -1.21,-0.99 -0.62,-4.41 -0.41,-5.68l55.78 -0.19 -0.03 -3.39 -1.97 -0.69 -0.06 -3.12c-1.76,-0.09 -1.91,0.06 -2,-1.81 -0.33,-6.49 0.91,-4.42 13.63,-4.43 2.23,-0.02 0,0 2.23,-0.02 13.82,0.33 13.95,-2.72 13.71,5.64l-1.97 0.67 -0.05 2.92 -2.01 0.72 -0.06 3.53c9.41,-0.17 18.95,-0.02 28.37,-0.02 3.14,0 26.6,-0.56 27.6,0.4 0.48,0.58 0.18,-0.38 0.39,0.69l0.04 4.66 -1.93 0.92c0.59,1.23 -0.07,0.34 1.12,1.22l0.05 36.19 2.8 0.08 0.38 2.13 2.61 0.04 2.61 0.03 0 -0.03 37.84 -0.02c0.25,0.02 0.54,0.02 0.88,0l3.54 0c0,0 0,0.01 0,0.01l13.13 -0.02 21.81 -0.03 1.22 0 0 0 2.2 -0.01 0 0.08 10.25 -0.07 0 -0.04 1.05 0 1.04 0.01 0 0.07c1.51,-0.01 2.21,0.12 2.78,-0.06l3.98 0.03c4,0.24 9.64,0.18 15.28,0.1 4.58,-0.06 9.15,-0.14 12.83,-0.08 1.5,0.02 1.85,0.2 3.17,-0.19l0.62 -0.37c-0.28,-2.77 -1.97,-1.15 -3.89,-3.12 -1.37,-1.39 -1.03,-2.74 -0.63,-4.5l1.44 -2.61 0.16 -0.31 -0.16 0.31 0.5 -0.15c2.57,0.93 6.86,-4.18 4.47,-5.44 3.22,-0.51 3.91,-0.71 3.97,4.21 2.75,1.49 3.79,4.37 6.46,5.67 0.88,-0.44 1.37,-1.28 2.28,-0.79 1.27,0.69 0.12,1.7 -0.32,2.23 -1.27,1.53 -0.5,0.87 -0.89,2.8 -0.24,1.21 -0.7,1.43 -1.1,2.8l5.03 -0.06c-0.07,-7.72 -0.47,-6.45 2.78,-11.82 1.84,-3.03 3.6,-5.96 5.44,-9.05 2.22,-3.74 1.41,-6.9 1.4,-13.19 0,-2.87 -0.53,-12.59 0.29,-14.42 0.53,-0.36 -0.65,-0.24 1.18,-0.45 0.28,-0.03 1.28,0 1.62,0 1.28,0 2.13,-0.06 3.39,0.19l0.07 13.63c0.92,-0.53 0.29,0.32 1.29,-1.12l15.18 -25.46c1.43,-2.45 2.3,-2.79 2.29,-6.19 -0.01,-2.83 -0.01,-5.65 0,-8.47 0,-2.66 -0.92,-7.07 2.1,-5.4 0.43,3.3 0.12,8.34 0.13,11.85 0.01,5.89 0.44,5.28 2.85,9.33l9.66 15.04 -0.01 -13.38zm187.02 225.7l-2.32 0 -0.1 -7.16 -3.69 0.05 -0.02 7.11 -2.07 0c0.03,-2.25 -0.02,-4.53 -0.02,-6.77 -0.01,-5.29 0.98,1.85 0.96,-8.16l-6.68 -0.02c-0.02,4.76 -0.21,10.1 0.03,14.95l-2.21 0 -0.01 -14.92 -6.68 -0.04 0 4.99c1.72,1.79 1.15,5.48 1.12,9.97l-2.34 0 -0.09 -7.19 -3.44 0.31c-0.65,1.66 -0.42,4.52 -0.33,6.88l-2.19 0c0.09,-1.97 -0.02,-4.14 -0.04,-5.96 -0.02,-2.08 -0.31,-1.75 0.6,-3.28 1.22,-2.02 -0.01,-12.97 0.62,-19.14l1.9 -0.92 -0.08 -4.77c-3.07,-0.24 -3.2,0.18 -2.97,-3.14 1.29,-1.06 2.79,-2.23 4.23,-3.36 2.49,-1.95 1.7,-1.84 5.68,-2.03 0.68,-1.35 1.71,-3.02 2.08,-4.49l-13.06 0.01c-0.71,5.48 0.66,12.37 -2,10.61 -1.37,-0.91 -0.49,-9.88 -0.05,-11.92 4.36,-20.33 36.71,-19.82 36.78,5.8 0,1.08 0,2.15 0.01,3.23 0.03,3.36 -0.18,1.71 -0.43,3.02l-1.5 0.02c-1.03,-2.76 -0.17,-7.36 -0.63,-10.73l-13 -0.07c0.26,1.37 1.43,3.32 2.03,4.62 3.78,-0.11 3.63,0.28 5.76,2.02 1.38,1.13 2.73,2.13 4.13,3.08l-0.2 3.14 -2.78 0.1 -0.03 4.86 1.92 1.01c0.45,4.31 0.11,10.96 0.07,15.5l0.22 3.11c0.04,0.1 0.1,0.19 0.14,0.28 1.08,2.41 0.8,6.23 0.68,9.4zm-238.58 0l-2.14 0 0.01 -0.67 -0.07 -42.46 -17.9 0.04c0.03,11.49 0.31,30.13 0,41.59 -0.01,0.64 -0.02,1.13 -0.01,1.5l-2.16 0 0.01 -0.28c0,-0.8 -0.04,-1.64 -0.04,-2.45l-0.06 -40.34c-3.55,-0.19 -2.91,-1.42 -2.6,-5.3 0.83,-0.76 12.83,-7.97 14.11,-7.8 1.1,0.14 12.66,7.02 13.58,7.94l-0.01 4.76 -2.64 0.38 -0.03 41.17c-0.01,0.72 -0.06,1.33 -0.05,1.92zm-4.2 0l-2.16 0 -0.03 -18 -9.96 0.03 -0.02 17.97 -2.25 0 -0.02 -17.22c0.02,-4.56 -0.01,-9.13 0,-13.69 0.01,-7.94 -3.05,-7.1 14.33,-6.75 0.62,7.26 0.22,25.84 0.2,34.53 0,1.46 -0.06,2.46 -0.09,3.13zm-173.76 0l-2.13 0 -0.04 -9.57c0,-12.8 1.31,-23.48 -4.75,-33.25 -2.99,-4.8 -7.83,-9.26 -13.63,-11.79 -7.58,-3.31 -13.82,-2.7 -22.86,-2.68 -14.69,0.01 -27.17,-0.52 -36.8,14.16 -4.24,6.45 -4.88,11.49 -4.88,20.67 0,1.66 -0.52,16.76 0.11,22.46l-2.37 0c0.45,-5.66 0.04,-20.95 0.05,-24.07 0.02,-9.31 1.36,-14.65 5.66,-20.92 10.36,-15.08 23.07,-14.52 38.23,-14.53 9.24,0 16.03,-0.59 23.78,2.85 13.65,6.07 19.6,17.96 19.63,33.01l0 23.66zm-4.02 0l-2.26 0c0.4,-6.41 -0.07,-15.05 -0.07,-21.25 0.01,-8.23 -0.62,-12.85 -4.35,-18.59 -2.89,-4.44 -6.98,-8.18 -12.49,-10.52 -6.44,-2.75 -12.84,-2.29 -20.62,-2.28 -13.13,0 -24.48,-0.09 -32.82,13.09 -3.5,5.54 -4.22,11.12 -4.22,18.7 -0.01,6.82 -0.18,13.96 0,20.85l-2.2 0 -0.07 -21.25c-0.01,-14.16 4.84,-25.25 17.89,-31.04 6.99,-3.11 12.96,-2.6 21.42,-2.6 13.54,0 26.13,-0.09 34.88,13.65 3.91,6.14 4.83,10.74 4.83,19.59 0.01,1.57 -0.5,16.07 0.08,21.65zm-23.28 0l-2.41 0 -0.03 -41.37c-3.47,-2.38 -7.65,-4.13 -12.87,-4.11 -6.14,0.02 -8.45,1.97 -12.7,3.9l0.2 41.58 -2.43 0 -0.04 -30.03c-4.36,-0.36 -7.76,1.32 -7.98,-2.06 -0.03,-0.54 0.02,-1.46 0.02,-2.05 0.01,-1.22 0,-2.32 0.1,-3.65l7.86 -0.11 0.07 -4.51c7.02,-6.55 23.34,-7.14 30.09,0.22l0 4.26c1.92,-0.03 6.35,-0.66 7.53,0.4 0.88,0.9 0.44,6.28 0.07,7.34l-7.61 0.05 0.13 30.14zm186.92 -178.37c0.17,0.09 0.28,0.15 0.34,0.16l-0.5 0.15 0.16 -0.31zm-72.11 85.47l5.13 -0.03 0.41 43.89c0,5.68 0.55,41.93 -0.06,44.17l-7.86 0.07 1.06 -43.83c0.11,-7.33 0.56,-14.39 0.67,-21.75 0.12,-7.52 0.19,-15.07 0.65,-22.52zm153.43 0.03l5.18 -0.07 2.48 87.89 -8.27 0.1 0.61 -87.92zm-27.4 -0.03l5.23 -0.05 2.47 87.91 -8.31 0.12 0.61 -87.98zm-28.13 0.27c1.48,-0.55 3.7,-0.33 5.15,-0.29l2.49 87.91 -8.25 0.07 0.61 -87.69zm-42.43 -0.28c6.98,-0.22 5.4,-2.58 5.38,18.1l0.31 46.31c0.02,7.83 0.12,15.66 0.12,23.49l-8.23 0.07 2.42 -87.97zm-28.16 -0.03l5.24 0c0.61,13.79 0.2,34.44 0.43,49.95l0.21 38 -8.28 0.02 2.4 -87.97zm-76.17 35.39l4.47 -0.01 0.01 51.12 -4.43 0.12 -0.05 -51.23zm251.97 -0.06l4.35 0.01 0.05 51.12 -4.41 0.05 0.01 -51.18zm121.44 31.1c1.04,0.36 1.12,-1.22 1.05,3.65l0.07 11.73c-0.25,2.84 0.38,1.14 -1.12,1.7 -0.85,-1.19 -0.55,-2.5 -0.54,-4.17 0.01,-2.05 -0.53,-11.5 0.54,-12.91zm-22.27 12.51c0,-1.95 -0.49,-11.15 0.52,-12.53 1.45,0.31 1.23,-0.87 1.19,4.07l0.06 11.72c-0.3,1.95 0.37,0.64 -0.84,1.29 -1.26,-0.54 -0.79,1 -0.99,-1.68 -0.05,-0.65 0.06,-2.11 0.06,-2.87zm-128.04 2.01l0.08 -1.21c1.9,-0.99 13.03,-0.43 16.03,-0.3l0.12 1.89c-2.64,0.18 -5.45,0.08 -8.08,0.08l-7.22 -0.07c-0.72,-0.15 -0.55,-0.17 -0.93,-0.39zm-206.08 -1.25c1.36,-0.48 14.64,-0.74 16.12,0.05l0.08 1.2c-0.11,0.06 -0.25,0.04 -0.31,0.16 -0.29,0.66 -15.47,0.22 -15.86,0.18l-0.03 -1.59zm431.5 -2.77c0.43,-0.76 -0.15,-0.92 2.61,-0.95 3.9,-0.05 2.51,0.03 3.05,0.95 -0.87,1.14 -0.73,0.77 -2.63,0.79 -0.17,0 -1.62,0.03 -1.66,0.03 -2.48,-0.34 -0.64,-0.23 -1.37,-0.82zm-24.75 0.4c0.18,-1.71 0.13,-1.33 2.38,-1.36 0.15,0 1.62,0 1.67,0 2.25,0.4 0.64,-0.32 1.42,0.96 -1.29,1.52 -4.83,0.77 -5.47,0.4zm-14.3 -0.4c0.5,-0.9 -0.1,-0.58 0.97,-0.89l3.28 -0.05c2.04,0.38 0.66,-0.23 1.28,0.94 -0.7,1.03 -2.41,1.04 -4.18,0.81 -2.58,-0.35 -0.59,-0.21 -1.35,-0.81zm-24.78 0.4c0.15,-1.1 -0.45,-1.76 4.05,-1.34l1.63 0.53c-0.25,1.3 0.04,1.45 -4.1,1.2 -0.08,0 -0.73,-0.05 -0.75,-0.06 -0.71,-0.12 -0.44,-0.11 -0.83,-0.33zm-49.24 -0.4c0.36,-0.72 -0.26,-0.88 2.51,-0.94 0.19,0 1.57,-0.02 1.66,0 2.14,0.38 0.65,-0.26 1.36,0.94 -0.78,1.03 -2.54,1.04 -4.25,0.8 -2.34,-0.33 -0.58,-0.2 -1.28,-0.8zm-38.99 0.4c0.22,-1.71 0.17,-1.32 2.44,-1.36 3.92,-0.06 2.53,0.05 3.04,0.96 -1.2,1.57 -4.86,0.71 -5.48,0.4zm-24.84 0c0.2,-1.52 -0.69,-0.75 0.78,-1.26 0.11,-0.04 1.71,-0.07 1.94,-0.08 2.84,-0.01 2.66,-0.44 2.78,1.74 -1.63,-0.21 -4.2,0.37 -5.5,-0.4zm125.95 0.37c-2.43,0 -1.81,0.32 -2.64,-0.77 0.53,-0.89 -0.08,-0.57 1.01,-0.87 0.45,-0.12 3.29,-0.33 4.5,0.46 -0.25,0.96 1.05,1.18 -2.87,1.18zm-72.3 -0.77c0.45,-0.81 -0.18,-0.94 2.63,-0.94 1.6,0 1.74,-0.2 2.87,0.53 -0.43,1.48 -0.37,1.17 -2.45,1.2 -0.17,0 -1.59,0.02 -1.66,0.02 -2.1,-0.29 -0.61,0.28 -1.39,-0.81zm-14.6 0.4c0.11,-1.17 -0.12,-1.75 3.97,-1.35 0.26,0.03 0.54,0.05 0.75,0.1 0.73,0.19 0.45,0.16 0.86,0.44 -0.34,1.54 -0.24,1.21 -2.42,1.21 -1.38,0 -2.2,0.19 -3.16,-0.4zm-77.48 -0.09l-3.91 0.04 -0.09 -15.66c-0.02,-2.43 -0.6,-3.89 2.06,-3.87 2.47,0.02 2.05,1.16 2.04,3.46l-0.1 16.03zm-206.2 -0.01l-3.86 0.04 -0.08 -15.65c-0.02,-2.34 -0.57,-3.87 2.01,-3.88 2.91,-0.02 2.02,2.55 2.03,8.72 0,3.45 0.16,7.37 -0.1,10.77zm328.15 -1.92l-0.04 -1.2c1.97,-0.82 2.99,-0.46 7.44,-0.46 2.64,0 5.41,-0.09 8.04,0.05l-0.52 1.89c-0.51,0.13 -0.46,0.14 -1.05,0.18l-12.9 -0.06c-1.51,-0.32 -0.24,0.01 -0.97,-0.4zm96.4 -46.28c1.22,1.49 0.54,20.31 0.54,22.12l0.02 21.36c-0.3,1.76 -0.06,0.63 -0.56,1.26 -1.17,-0.47 -0.93,0.42 -1,-2.04l0.03 -40.34c0,-2.66 0.36,-2.13 0.97,-2.36zm-25.81 41.86l-0.04 -39.08c-0.02,-2.4 -0.49,-2.53 1.28,-2.76 0.87,1.53 0.38,15.09 0.38,17.67l0.04 24.59c0.03,2.31 0.43,2.17 -1.22,2.44 -0.57,-0.87 -0.19,0.98 -0.45,-1.24 -0.05,-0.33 0.01,-1.23 0.01,-1.62zm-14.38 -0.81l-0.01 -37.05c0,-4.68 -0.44,-3.74 1.13,-4 0.96,1.51 0.51,37.4 0.45,42.68 0,0.22 -0.01,0.99 -0.05,1.17 -0.15,0.76 -0.13,0.45 -0.4,0.87 -1.5,-0.27 -0.98,0.48 -1.17,-1.21 -0.05,-0.38 0.05,-1.93 0.05,-2.46zm-13.78 -45.66c1.41,0.83 0.84,0.78 0.84,5.39l-0.43 43.96c-1.47,-0.55 -0.96,0.9 -0.95,-5.3l-0.02 -42.7c0.24,-1.46 0.08,-0.67 0.56,-1.35zm-7.01 0.15c1.1,-0.77 1.28,-1.14 2.18,-1.61l1.93 1.66 0.09 49.05c-2.81,0.46 -1.29,0.57 -4.12,0.06l-0.08 -49.16zm-3.05 -0.12c1.12,0.66 0.8,0.04 0.86,2.11 0.03,1.02 -0.03,2.2 -0.03,3.25l-0.03 43.08c-0.32,1.06 0.14,0.44 -0.8,0.89 -1.06,-0.58 -0.76,0.04 -0.79,-2.05l0.02 -44.76c-0.01,-1.88 -0.35,-1.79 0.77,-2.52zm-49.14 0c0.26,0.42 0.27,0.18 0.42,0.95l0.07 47.11c-0.2,1.38 0.02,0.54 -0.49,1.25 -1.42,-0.56 -0.93,0.66 -0.94,-5.29l0.01 -43.1c0.41,-1.13 -0.13,-0.47 0.93,-0.92zm-7.41 -0.07c1.49,-0.63 1.05,-0.71 2.18,-1.46 0.66,0.53 1.17,1.04 1.98,1.6l0.02 49.13c-2.94,0.67 -1.33,0.5 -4.12,0.1l-0.06 -49.37zm-3.06 0.03c1.13,0.71 0.8,0.09 0.83,2.15l-0.03 41.11c0,1.07 0,2.15 0.01,3.23l-0.14 2.28c-0.02,0.09 -0.1,0.22 -0.12,0.29 -0.02,0.06 -0.09,0.18 -0.14,0.27 -1.21,-0.4 -1.01,0.6 -1.05,-2.01l0.05 -45.96c0.27,-1.59 0.12,-0.73 0.59,-1.36zm-14.49 4.75c0.37,0.21 0.88,-0.36 0.93,2.23 0,0.89 -0.06,1.93 -0.06,2.85l0.03 38.27c-0.21,1.41 -0.06,0.64 -0.5,1.27 -1.43,-0.54 -1.03,0.99 -1.02,-4.91l0 -33.82c0.01,-2.58 -0.37,-4.5 0.62,-5.89zm-14.99 41.73l-0.01 -40.68c0.21,-1.27 -0.06,-0.45 0.5,-1.18 1.23,0.44 1.02,-0.71 1,5.21l0.01 38.3c-0.26,1.31 0.11,0.81 -1.01,1.24 -0.8,-1.11 -0.48,-0.48 -0.49,-2.89zm-24.86 -4.03l-0.05 -36.69c0.24,-1.58 -0.17,-0.93 1.24,-1.12 0.94,1.68 0.27,35.21 0.38,44.7 -2.33,-0.25 -1.57,0.4 -1.57,-6.89zm-150.61 5.23c0.58,-1.31 0.11,-0.82 4.8,-0.81 0.95,0 1.89,-0.01 2.84,-0.01 1.92,-0.01 1.81,-0.39 2.39,0.82 -0.46,0.37 0.04,0.29 -0.83,0.48l-3.99 0.07c-2.19,0.02 -4.14,0.35 -5.21,-0.55zm232.19 -5.61l15.39 -0.02 0.11 4.87 -15.52 0.08 0.02 -4.93zm-232.18 -3.55l9.89 0.02 0.1 6.2 -9.92 0.06 -0.07 -6.28zm230.25 -4.13c1.65,-0.05 3.04,-0.18 4.24,0.27 1.06,3.06 -1.1,3.71 3.46,3.64 2.25,-0.04 4.97,0.1 6.93,-0.26l0.29 -3.66 4.38 0.04 0.09 5.17 -19.44 0.13 0.05 -5.33zm6.75 0.81c0.49,-0.87 -0.22,-0.85 2.98,-0.84 3.95,0.01 2.39,-0.2 2.93,0.84 -0.42,0.83 0.36,0.85 -2.93,0.86 -0.22,0 -1.56,0.03 -1.66,0.02 -2.64,-0.4 -0.64,-0.24 -1.32,-0.88zm-237 -1.97l2.37 -0.21 7.57 0.13 0.08 2.89 -5.23 0.19 -0.8 -0.03 -4 -0.09 0.01 -2.88zm-188.98 -0.45l5.59 0.06 0.04 3.07 -5.69 0.23 0.06 -3.36zm-35.83 0.02l5.59 0.03 0.1 3.17 -5.76 0.12 0.07 -3.32zm473.55 -2.97c1.64,0.36 2.32,1.01 2.95,2.24l-2.92 0.08 -0.03 -2.32zm-7.78 1.75c0.11,-2.54 -0.17,-1.35 2.04,-2.26 1.92,-0.79 0.9,-1.04 3.54,-1.08l0.1 3.92 -4.26 0.01c-1.55,-0.27 -0.77,-0.14 -1.42,-0.59zm-7.61 -3.45c2.56,0.19 1.77,0.53 3.56,1.24 2.26,0.9 1.9,-0.14 1.94,2.73l-5.53 0.08 0.03 -4.05zm-2.39 1.69l0.01 2.32 -2.82 0.03c0.56,-1.44 -0.43,-0.32 0.92,-1.44 0.57,-0.47 0.98,-0.59 1.89,-0.91zm-126.96 7.4l-0.05 15.66 -2.03 -0.04 -0.04 -25.66 12.82 -0.06 0.02 25.7 -2.03 0.04c-2.1,-11.78 3.92,-22.93 -5.6,-21.65 -3,0.4 -3.09,2.77 -3.09,6.01zm-205.99 -2.02c0,1.8 0.44,16.62 -0.33,17.35 -0.92,0.44 -0.54,0.32 -1.91,0.26l-0.06 -25.62 12.79 -0.12 0.1 24.3c-0.23,1.82 0.42,1.25 -1.67,1.41 -0.26,-0.43 -0.3,-0.22 -0.47,-1.06l-0.04 -14.1c0.03,-3.15 0.02,-5.9 -2.74,-6.38 -3.8,-0.67 -5.68,0.45 -5.67,3.96zm408.41 -5.23c0.47,-0.35 0.01,-0.26 0.86,-0.45l16.1 -0.1c2.22,0.06 1.55,-0.16 2.06,0.95 -1.33,0.9 -14.57,0.64 -17.04,0.58 -2.97,-0.08 -1.46,-0.31 -1.98,-0.98zm-152.03 0.4c0.34,-0.66 -0.25,-1 2.61,-0.96l14.99 -0.01c2.09,0.37 1.05,-0.54 1.29,1.49l-17.49 0.04c-1.73,-0.27 -0.79,-0.15 -1.4,-0.56zm152.03 -8.46l0.02 -16.91 1.92 -1.59 0.14 -3.56 14.82 -0.08c0.21,3.31 -0.26,3.73 2.03,4.8l0.07 22.57 -18.99 0.02 -0.01 -5.25zm-66.44 0.72c1.52,0.69 2.52,2.34 2.62,4.64 -2.56,0.48 -2.95,0.5 -5.5,-0.07 0.18,-2.13 1.13,-3.92 2.88,-4.57zm-85.61 -17.63l0.52 -0.48c2.07,-1.98 1.25,-1.31 1.6,-4.81l14.62 0.05c0.6,4.99 -0.45,2.26 2.11,5.24l0.08 22.18 -18.85 0 -0.08 -22.18zm-51.47 19.33c0.91,-1.37 1.05,-0.79 5.39,-0.77 0.95,0 1.89,-0.01 2.83,-0.03 0.15,0 1.57,0 1.61,0.01 1.04,0.28 0.45,-0.06 0.95,0.79 -0.95,0.57 -0.99,0.49 -2.56,0.48l-5.66 0.02c-3.42,0.03 -1.95,-0.13 -2.56,-0.5zm-206.14 0c0.78,-1.38 0.67,-0.8 5.34,-0.79 3.14,0 4.62,-0.48 5.42,0.79 -1.45,0.85 -6.36,0.49 -8.25,0.5 -2.09,0.01 -1.67,0.05 -2.51,-0.5zm96.73 -1.61c0.6,-1.5 0.21,-0.95 5.26,-0.95 2.02,0 4.03,0 6.04,0.01l9.28 -0.01c2.43,-0.01 2.05,-0.05 2.84,0.54 -0.52,1.14 0.11,0.85 -2.01,0.89l-15.34 -0.04c-1.08,0 -2.15,0 -3.23,0.01l-2.57 -0.31c-0.07,-0.02 -0.19,-0.09 -0.27,-0.14zm114.8 -5.85c1.2,0.47 4.73,2.91 5.41,4.43l-10.78 -0.02c0.58,-1.45 -0.33,-0.23 0.96,-1.4l4.41 -3.01zm-206.19 -0.01c1.51,0.51 4.88,3.11 5.59,4.28l-10.93 0.14c0.66,-1.54 3.75,-3.77 5.34,-4.42zm110.84 2.68l-15.39 0c0.77,-1.31 2.16,-1.73 3.55,-2.55 0.89,-0.52 3.06,-2.02 4.09,-2.03 0.97,-0.01 3.32,1.56 4.11,2.02 0.64,0.37 1.2,0.68 1.81,1.01 1.53,0.83 1.26,0.6 1.83,1.55zm225.57 -0.43l-13.94 0.04c0.51,-3.03 3.74,-7.61 6.65,-8.29l0.14 4.34c6.05,0.53 10.88,0.31 17,0.27l0.13 -4.47c2.79,0.06 6.38,5.54 6.54,8.12 -2.74,0.01 -5.47,0.01 -8.2,0.03 -1.28,0 -2.83,0.08 -4.07,0.03 -2.91,-0.13 -0.89,-0.27 -2.78,-1.28 -1.17,0.44 -0.72,0.18 -1.47,1.21zm-140.61 4.01l2.77 0.61c-0.79,3.39 -1.08,-1.6 -1.09,8.65l-0.02 20.14 -1.56 0.69 -0.02 3.77 -8.96 0 -1.35 -50.47 37.2 0 0.03 3.72 1.94 1.06c-0.32,14.64 -0.05,30.97 -0.06,45.58l-8.15 0.11 -0.04 -3.62c-0.62,-0.44 -0.78,-0.42 -1.49,-0.84 -0.15,-3.54 0.3,-25.65 -0.35,-27.01 -0.51,-1.06 -0.44,0.39 -0.87,-1.58 1.36,-0.74 1.09,-0.07 2.35,-0.61 0.76,-0.33 0.85,-0.85 0.32,-1.55l-10.26 -7.77c-1.38,0.51 -4.28,3 -5.56,3.98 -2.78,2.14 -5,3.11 -4.83,5.14zm-206.3 0.08c1.11,0.34 1.94,0.18 2.93,0.73 -0.78,2.89 -1.1,-1.05 -1.1,5.23 0,3.41 0.53,20.55 -0.23,23.2 -0.13,0.47 -0.52,0.38 -1.32,0.96l-0.03 3.64 -8.05 0.03c-0.33,-14.59 0,-30.7 -0.07,-45.55l0.84 -0.62c0.63,-0.43 0.32,-0.11 0.91,-0.59l0.03 -3.69 37.15 -0.02c0.14,13.48 -0.9,35.77 -1.29,50.16 -1.82,0.62 -6.44,0.33 -8.93,0.3l-0.01 -3.66 -1.55 -0.68 -0.08 -25.09c-0.01,-3.35 -0.55,-1.5 -1.02,-3.62 2.64,-1.51 5.94,0.49 -0.75,-4.91 -1.34,-1.08 -5.45,-4.43 -6.93,-5.03 -1.62,0.71 -6.37,4.69 -8.26,6.11 -1.33,1.01 -2.13,1.03 -2.24,3.1zm354.48 -14.21l0.21 4.21 -10.74 0.03 -2.07 -0.04c-0.03,-4.37 -0.55,-4.55 4.06,-5.08 3.63,-0.41 5.53,0.17 8.54,0.88zm-118.92 -0.77l0.57 -1.53 3.11 -0.2c1.51,0 2.95,-0.02 4.47,0.05l0.01 1.68c-0.92,0.51 -0.13,0.32 -1.64,0.41 -1.3,0.09 -5.46,0.18 -6.52,-0.41zm-67.04 -11.74l16.8 0.02 -0.1 12.02 -16.45 0.1 -0.25 -12.14zm-28.19 0l11.04 0.04 0.05 12 -10.83 0.11 -0.26 -12.15zm-42.95 0.05l32.37 -0.03 -0.05 12.07 -32.17 0.06 -0.15 -12.1zm-21.56 0.13l10.97 -0.18 -0.18 12.08 -10.76 0.05 -0.03 -11.95zm-33.98 -0.13l16.78 -0.03 -0.16 12.09 -16.49 0.02 -0.13 -12.08zm-58.37 10.02c1.38,-0.05 2.71,-0.05 4.08,-0.06 1.68,-0.01 2.95,-0.3 4.09,0.52l-0.59 1.47 -3.1 0.13c-1.49,0 -2.97,0.03 -4.46,0.01l-0.02 -2.07zm-149.83 -4.06l139.18 -0.07 0.03 2.17c-2.28,0.8 -5.78,0.39 -8.26,0.4l-61.21 0c-23.09,0.03 -46.66,0.46 -69.7,-0.01l-0.04 -2.49zm362.27 -2.47l45.84 0.05 0.03 4.1 -45.7 0.05 -0.17 -4.2zm-210.48 0.02l45.83 0.02 -0.1 4.14 -45.67 0.02 -0.06 -4.18zm423.76 -0.23l5.3 -0.07 0.01 2.75 -5.17 -0.01 -0.14 -2.67zm24.83 0.35c1.42,-0.76 3.84,-0.44 5.39,-0.38l0.18 2.57 -5.59 0.04 0.02 -2.23zm-39.01 -0.41l5.3 0.01 0.09 2.54 -5.46 0.11 0.07 -2.66zm-98.78 0.41c1.34,-0.67 3.58,-0.49 5.37,-0.33l0.11 2.41 -5.52 0.18 0.04 -2.26zm-14.3 -0.36l5.29 -0.07 0.12 2.62 -5.43 0.02 0.02 -2.57zm-24.71 -0.06l5.3 0.04 0.1 2.45 -5.49 0.19 0.09 -2.68zm94.36 -4.49l16.47 -0.08c0.09,3.91 -0.31,3.33 1.98,5.05l0.05 12.75c-1.01,-0.4 -1.07,-0.99 -1.63,-1.87 -1.69,-2.65 -3.35,-4.38 -5.8,-6.28 -2.95,-2.3 -6.45,-4 -11.03,-4.66l-0.04 -4.91zm-25.03 17.56l-0.01 -12.76 1.99 -1.47 0.01 -3.42 15.72 0.03 0.06 4.94c-6.72,1.98 -10.04,3.45 -14.23,8.32 -0.63,0.74 -1.1,1.33 -1.56,2.05 -0.87,1.34 -0.57,1.63 -1.98,2.31zm-370.52 -74.76l14.12 -0.03 0.01 62.05 -14.05 0.13 -0.08 -62.15zm-5.66 57.72l3.33 0.01 0.1 4.38 -3.4 0.03 -0.03 -4.42zm-4.39 0l2 0.05 0.09 4.26 -2.1 0.11 0.01 -4.42zm-4.37 0.02l1.95 0.01 0.08 4.31 -2.02 0.09 -0.01 -4.41zm-5.75 -0.03l3.31 0.02 0.15 4.39 -3.39 -0.01 -0.07 -4.4zm-11.55 -57.62l9.23 -0.13 0.04 62.09 -9.21 0.09 -0.06 -62.05zm-12.99 55.41l6.65 -0.02 0.01 6.65 -6.58 0 -0.08 -6.63zm-6.67 0.22l4.38 -0.23 0.04 6.62 -4.39 -0.03 -0.03 -6.36zm-2.21 -0.32l0.19 6.69 -4.42 0.03c-0.04,-1.49 -0.55,-5.62 0.32,-6.46 0.51,-0.49 0.17,-0.26 1.2,-0.33 0.66,-0.05 1.98,0.05 2.71,0.07zm-13.14 -0.03l4.83 -0.02c1.87,0.13 0.78,-0.06 1.76,0.54l0.17 6.11 -6.74 0.14 -0.02 -6.77zm-16.32 -55.41l9.14 -0.02 0.01 62.16 -9.02 0.04 -0.13 -62.18zm-5.8 57.84l3.49 -0.06 0.1 4.33 -3.59 0.06 0 -4.33zm-4.12 0.24l1.66 -0.36 0.17 4.45 -2.11 -0.05c-0.04,-0.67 -0.08,-1.35 -0.07,-2 0.01,-1.35 -0.09,-1.13 0.35,-2.04zm-3.98 -0.31l0.81 -0.01c0.71,0.83 0.77,2.29 0.6,3.2 -0.31,1.69 -0.11,0.63 -0.6,1.2l-0.81 0c-0.3,-0.36 -0.56,-0.01 -0.59,-2.01 -0.04,-2.48 0.43,-2.18 0.59,-2.38zm-6.47 0.02l3.57 -0.01 0.07 4.32 -3.62 0.07 -0.02 -4.38zm-16.2 -57.78l13.98 -0.05 0.03 62.19 -13.91 0.02 -0.1 -62.16zm510.12 57.15l2.76 0.01 0.07 4.68 -2.79 -0.01 -0.04 -4.68zm-25.62 0.04l5.4 -0.05 -0.01 2.58 -5.28 0.03 -0.11 -2.56zm-125.1 0.61l50.65 -0.04 0.12 1.56c-2.67,1.09 -39.61,0.45 -44.79,0.46l-5.99 0 0.01 -1.98zm-215.18 0.32c1.8,-0.96 21.82,-0.38 25.44,-0.38 3.55,0 23.69,-0.57 25.36,0.38l0.06 1.62 -50.76 0.04 -0.1 -1.66zm452.3 -0.4c1.71,-0.94 5.44,-0.39 7.66,-0.36l0.13 2.08 -7.81 0.01 0.02 -1.73zm-14.72 1.21l0.01 -1.21c0.87,-0.61 0.92,-0.63 2.64,-0.63l9.75 0.08 0.04 1.76c-0.95,0.65 -0.76,0.56 -2.93,0.53 -2.38,-0.02 -7.73,0.56 -9.51,-0.53zm-10.29 -1.21c0.91,-0.49 0.14,-0.32 1.65,-0.41l6.35 0.12 0.07 1.86 -8.07 0.19 0 -1.76zm-14.2 1.21l0.66 -1.47 3.13 -0.13c1.57,0 2.92,-0.22 4.04,0.39l0.06 1.68c-1.74,0.06 -6.44,0.51 -7.89,-0.47zm-13.21 0.4l-0.07 -2.2 5.38 0.04c0.06,1.57 0.19,1.2 -0.25,2.31 -1.16,0.44 -3.75,0.58 -5.06,-0.15zm-10.3 0.31l0 -2.58 3.94 -0.06 1.47 0.04c0.26,1.44 0.38,1.23 -0.11,2.44 -1.26,0.48 -3.68,0.36 -5.3,0.16zm-59.42 -0.31l-0.02 -2.19 5.35 0.05c0.06,1.55 0.19,1.19 -0.25,2.26 -1.38,0.57 -3.62,0.4 -4.46,0.17l-0.62 -0.29zm-7.96 -1.61l0.08 1.65 -6.08 0.1 -1.94 -0.14c0.03,-2.6 0.32,-2.04 3.14,-2.01 1.55,0.02 3.69,-0.25 4.8,0.4zm-22.17 0c1.32,-0.72 2.35,-0.37 4.5,-0.4 2.64,-0.03 3.23,-0.7 3.44,1.61 -1.48,0.92 -6.17,0.57 -7.92,0.49l-0.02 -1.7zm-14.79 -0.39l11.24 -0.19c1.67,0.31 0.63,0.08 1.26,0.58l0.05 1.21c-0.6,0.41 0.12,0.3 -1.31,0.52l-11.26 -0.09 0.02 -2.03zm-10.02 0.1c1.62,-0.11 3.17,-0.08 4.75,-0.11 2.96,-0.06 3,-0.57 3,2.12l-3.41 0.02 -4.35 -0.09 0.01 -1.94zm-157.47 -24.61l30.28 -0.19c0.04,0.97 -0.05,2.49 0.05,3.29 0.09,0.76 0.01,0.49 0.37,1.09l0.58 0.72c0.62,0.77 0.16,16.25 0.15,18.48l-32.38 0.01c-0.09,-4.08 -0.09,-8.16 -0.1,-12.2 -0.01,-11.9 0.69,-1.97 1.05,-11.2zm-152.45 17.67l2.06 0.05 0.05 5.03 -1.97 0.07 -0.14 -5.15zm-4.32 0.02l1.94 0.03 0.07 5.05 -1.92 0.04 -0.09 -5.12zm-78.87 0.06l2.01 -0.1 0.1 5.16 -2.04 -0.01 -0.07 -5.05zm-10.14 -0.05l3.56 -0.01 0.06 5.07 -3.52 0.05 -0.1 -5.11zm343.03 -1.22l45.99 0.02 0.22 6.2 -46.14 -0.02 -0.07 -6.2zm-210.17 0.01l45.97 0 0.14 6.19 -46.08 0.02 -0.03 -6.21zm-35.09 1.19l3.3 0 0.17 4.99 -3.51 0.06 0.04 -5.05zm-14.49 -0.01l3.28 0.01 0.19 5.02 -3.53 0.02 0.06 -5.05zm-68.7 0.08l3.48 -0.06 0.14 4.9 -3.63 0.1 0.01 -4.94zm-8.1 -0.07l0.81 -0.01c0.93,1.09 0.61,3.97 0.59,4.05 -0.42,1.28 0.14,0.48 -1,0.99 -0.19,-0.09 -1.69,0.48 -0.94,-3.87 0.26,-1.46 0.11,-0.63 0.54,-1.16zm394.54 3.99l0.06 -1.21c1.91,-0.97 122.34,-0.3 141.82,-0.37 6.07,-0.03 44.84,-0.82 47.11,0.37l0.02 1.59c-54.55,0.48 -110.68,0.04 -165.53,0.03l-23.18 -0.26c-0.07,-0.03 -0.2,-0.09 -0.3,-0.15zm-342.27 -8.02l6.48 0.03 0.15 6.73 -6.5 0 -0.13 -6.76zm-2.43 0.08l0.14 6.66 -4.34 0c-0.07,-1.15 -0.23,-4.64 -0.07,-5.58 0.29,-1.7 1.98,-1.21 4.27,-1.08zm-10.72 0l4.27 -0.05 0.13 6.69 -4.33 0.04 -0.07 -6.68zm-8.93 -0.05l6.46 0 0.19 6.73 -6.55 0.01 -0.1 -6.74zm518.64 1.92l32.72 -0.04 0.02 2.45 -32.65 0.02 -0.09 -2.43zm-16.39 0.1c2.39,-0.3 4.82,-0.13 7.2,-0.13 2.14,0 5.57,-0.35 7,0.46l0.01 1.62c-2.11,0.96 -11.29,0.51 -14.18,0.29l-0.03 -2.24zm-84.18 -0.01l81.75 -0.13 0.02 2.43 -81.72 0.03 -0.05 -2.33zm-16.57 -0.07l13.3 0c0.77,0.16 0.59,0.18 1,0.41l-0.02 1.62c-2.29,1.03 -11.13,0.44 -14.22,0.35l-0.06 -2.38zm-34.91 0.1c4.37,-0.57 11.71,-0.14 16.4,-0.14l12.09 -0.01c1.65,-0.01 2.9,-0.27 4.19,0.46l0.02 1.62c-1.84,0.87 -31.82,0.62 -32.41,0.06 -0.14,-0.28 -0.23,-0.21 -0.31,-0.88 -0.05,-0.48 -0.01,-0.66 0.02,-1.11zm-196.95 7.66l-17.03 0.03 0.03 -18.2c0.73,-2.34 0.76,1.95 1.06,-5.39l15.44 0.02c0.01,0.96 -0.05,2.12 0,2.93 0.23,3.98 0.95,-1.99 0.78,8.43 -0.07,4.16 -0.23,8 -0.28,12.18zm-108.74 -12.5l3.61 -0.22 -0.04 4.85 -3.48 0 -0.09 -4.63zm-4.4 0.03l2.27 -0.18 0 4.77 -2.24 0.02 -0.03 -4.61zm-4.18 -0.2c2.54,-0.04 2.08,0.3 2.1,2.09l-0.29 2.27c-0.02,0.08 -0.1,0.2 -0.15,0.3l-1.21 0.06c-0.22,-0.38 -0.3,-0.22 -0.44,-1l-0.01 -3.72zm-5.77 -0.05l3.46 0.02 0.06 4.72 -3.52 0.04 0 -4.78zm-68.69 0.12l3.61 -0.07 0.06 4.61 -3.62 0.06 -0.05 -4.6zm-4.02 -0.05l1.77 -0.06 0.04 4.76 -1.81 -0.04c-0.36,-0.7 -0.12,0.62 -0.37,-0.97 -0.24,-1.48 -0.16,-2.74 0.37,-3.69zm-4.03 -0.06c0.54,0.08 2.21,-1.01 1.43,3.38 -0.39,2.2 0.07,0.46 -0.62,1.37 -0.77,-0.12 -2.12,1.04 -1.37,-3.43 0.29,-1.79 0.08,-0.66 0.56,-1.32zm-6.51 0.04l3.67 0.01 0.05 4.64 -3.74 0.05 0.02 -4.7zm554.45 -0.01l34.79 0.03 0.09 2.62 -34.91 0.04 0.03 -2.69zm-10.42 0.04l8.09 0.04 0.1 2.48 -8.3 0.16 0.11 -2.68zm-94.22 -0.01l91.93 0 0.11 2.59 -92.11 0.04 0.07 -2.63zm-10.46 0.04l8.12 -0.01 0.09 2.53 -8.28 0.12 0.07 -2.64zm-37.17 0.43c1.8,-1.08 9.56,-0.47 12.28,-0.47l22.57 0.03 0.05 2.55 -34.93 0.07 0.03 -2.18zm-85.95 -11.26l15.43 -0.13c0.25,9.73 1.24,-0.84 1.22,10.99 0,4.15 -0.01,8.42 -0.11,12.56l-16.94 0.04 -0.51 -17.84c0.4,-2.18 0.59,-0.09 0.87,-2.4 0.09,-0.8 0,-2.29 0.04,-3.22zm-257.43 4.85l6.47 0.04 0.18 6.51 -6.66 0.03 0.01 -6.58zm-6.61 0.13l4.29 0.06 0.03 6.33 -4.31 0.06 -0.01 -6.45zm-2.3 -0.05l0.19 6.43 -4.47 0.02c0,-1.28 -0.17,-4.42 -0.02,-5.37 0.3,-1.81 2.18,-1.17 4.3,-1.08zm-13.16 -0.03l6.43 -0.01 0.26 6.52 -6.73 0 0.04 -6.51zm518.98 -1.42l31.45 0.05 0.03 4.86 -31.45 0.12 -0.03 -5.03zm-105.86 1.4l91.79 0.01 0.19 3.58 -92.02 0.09 0.04 -3.68zm-45.48 -1.32l31.25 -0.1 0 5.06 -31.22 0.01 -0.03 -4.97zm-306.76 -0.28l3.59 -0.31 0.01 5.44 -3.56 -0.02 -0.04 -5.11zm-2.22 -0.35l0.11 5.42 -2.27 0.04c-0.04,-0.99 -0.46,-4.76 0.5,-5.34 0.53,-0.32 1.01,-0.16 1.66,-0.12zm-6.34 -0.04l1.92 0 0.11 5.49 -2.01 0.05 -0.02 -5.54zm-5.91 0.41l3.57 -0.34 0.01 5.46 -3.55 -0.04 -0.03 -5.08zm-65.1 -0.36l0.17 5.44 -3.6 0.05c-0.17,-4.95 -1.15,-5.72 3.43,-5.49zm-7.9 0.24l1.6 -0.18c0.97,1.34 0.69,3.8 0.43,5.42l-1.98 0 -0.05 -5.24zm-10.1 -0.28l3.52 0 0.13 5.47 -3.61 0.07 -0.04 -5.54zm6.87 0.1c0.8,0.36 1.02,-0.44 1.04,2.62 0.01,3.06 -0.24,2.3 -1.04,2.66 -0.82,-0.39 -1,0.46 -0.97,-2.66 0.03,-3 0.15,-2.23 0.97,-2.62zm51.83 -7.14l6.62 0.04 0.05 6.89 -6.54 0 -0.13 -6.93zm-6.65 0.2l4.34 -0.16 0.07 6.88 -4.36 -0.03 -0.05 -6.69zm-6.48 -0.06l4.37 -0.11 0.05 6.86 -4.36 0.02 -0.06 -6.77zm-8.93 -0.07l6.78 0 0.03 6.75 -6.73 0.13 -0.08 -6.88zm423.94 6.07l0.02 -1.2c0.43,-0.23 0.25,-0.27 0.96,-0.39 2.61,-0.45 67.41,-0.02 69.26,0.17l0.02 1.9c-11.6,0.62 -33.17,0.14 -45.54,0.14l-23.75 -0.06c-0.99,-0.29 -0.37,-0.07 -0.97,-0.56zm-126.52 -2.13l3.85 0 3.35 0.02 0.02 2.62 -7.21 0.03 -0.01 -2.67zm-27.36 0.01l7.23 -0.01 0.02 2.67 -7.22 -0.02 -0.03 -2.64zm-28.19 0l7.21 -0.01 0.04 2.67 -7.24 -0.01 -0.01 -2.65zm-42.28 -0.01l7.21 0.01 0.03 2.63 -7.22 0.03 -0.02 -2.67zm-28.25 0.52c0.58,-0.35 -0.72,-0.59 3.47,-0.53 1.26,0.02 2.52,0.02 3.78,0.03l0.04 2.6 -7.25 0.05 -0.04 -2.15zm-27.31 -0.52l7.37 0.05 -0.01 2.42 -7.35 0.2 -0.01 -2.67zm372.74 0.93c0.4,-2.01 2.52,-1.27 8,-1.25l26.22 -0.03c2.26,0.17 1.13,-0.13 1.63,0.87 -0.45,1.08 1.11,0.95 -3.68,0.91 -3.72,-0.02 -30.68,0.64 -32.17,-0.5zm-151.45 -0.41c0.38,-0.81 -0.98,-0.87 3.6,-0.83l28.19 0c5.12,-0.03 3.59,-0.15 4.13,0.83 -0.62,1.38 0.8,0.57 -1.27,0.93l-33.11 0.02c-2.61,-0.25 -1.06,-0.36 -1.54,-0.95zm-304.49 -4.45l3.65 -0.04 0.04 4.82 -3.52 -0.01 -0.17 -4.77zm-4.31 0.13c2.79,-0.18 2.44,2.05 2.22,4.62l-2.18 0.02 -0.04 -4.64zm-2.16 -0.07l0.02 4.71 -1.95 0.02c-0.28,-2.68 -0.61,-4.47 1.93,-4.73zm-7.89 0.1l3.7 -0.3 -0.16 4.93 -3.51 -0.03 -0.03 -4.6zm-72.99 -0.09c2.7,0.09 2.42,2.36 2,4.74l-1.93 -0.02 -0.07 -4.72zm-10.14 -0.09l3.79 -0.07 -0.17 4.85 -3.53 0.02 -0.09 -4.8zm14.45 -0.04l3.66 0.07 0.1 4.58 -3.62 0.06 -0.14 -4.71zm-6.63 0.05c0.29,5.91 0.31,4.16 -0.93,4.71 -1.07,-0.52 -0.61,0.29 -0.95,-1.01 -0.5,-1.92 0.04,-3.31 1.88,-3.7zm450.19 1.64c0.84,-1.45 4.85,-0.83 8.38,-0.84l62.02 0c5.39,-0.02 3.61,-0.2 4.17,0.84l-0.62 0.4c-0.6,0.19 -0.37,0.18 -1.11,0.24 -4.17,0.4 -55.54,0.01 -63.65,-0.01 -1.61,-0.01 -3.23,0 -4.84,0.01l-3.56 -0.13c-0.9,-0.29 -0.28,-0.03 -0.79,-0.51zm-126.18 -0.4l-0.05 -1.76 11.76 -0.05 0.02 2.18 -10.48 0.13c-2.06,-0.32 -0.49,0.02 -1.25,-0.5zm-13.37 0l-0.05 -1.21c1.3,-1.02 3.1,-0.63 5.42,-0.63 1.9,0 3.81,-0.01 5.71,0.04l0.06 1.8c-1.43,0.86 -3.72,0.49 -5.37,0.49 -2.2,-0.01 -4.52,0.33 -5.77,-0.49zm-14.06 -0.4l0.01 -1.41 11.82 0 -0.01 2.23 -9.33 0.1c-3.2,0.03 -1.95,-0.3 -2.49,-0.92zm-28.14 -1.34l11.76 -0.07 -0.03 2.2 -11.7 0.11 -0.03 -2.24zm-28.28 1.74l-0.03 -1.21c0.51,-0.41 -0.49,-0.7 2.99,-0.65 1.07,0.02 2.14,0.02 3.22,0.02l16.51 -0.01c4.29,-0.05 2.71,0.1 3.35,0.64l0.04 1.21c-0.51,0.31 0.54,0.53 -2.98,0.5l-10.07 -0.02c-2.15,0 -4.3,0 -6.45,0 -2.15,0 -5.29,0.37 -6.58,-0.48zm-14.03 -1.75l11.78 -0.04 0.01 2.2 -11.74 0.05 -0.05 -2.21zm-14.17 1.75l-0.06 -1.21c0.58,-0.45 0.01,-0.32 1.02,-0.57 0.43,-0.11 1.13,-0.11 1.59,-0.11l8.08 0.06c2.16,0.4 0.42,-0.12 1.34,0.62l0.02 1.21c-0.43,0.25 -0.21,0.27 -0.98,0.42 -1.78,0.35 -9.69,0.12 -10.38,-0.1l-0.63 -0.32zm-13.99 0l-0.09 -1.79 11.91 -0.03 0.02 1.82c-0.49,0.3 -0.14,0.26 -0.95,0.42 -1.66,0.32 -9.68,0.45 -10.89,-0.42zm-13.36 0l-0.06 -1.21c0.74,-0.6 0.62,-0.68 2.58,-0.67l7.28 0.05c2.01,0.39 0.5,-0.04 1.32,0.62l0.01 1.21 -8.2 0.5c-2.14,0.03 -1.96,0.15 -2.93,-0.5zm-14 -1.69l11.77 -0.14 0.01 1.83 -11.74 0.4 -0.04 -2.09zm403.36 1.29c0.35,-0.78 -0.35,-1.05 2.6,-1.05 3.72,0 2.49,0.24 2.76,1.05 -1.02,0.85 -4.1,0.89 -5.36,0zm-18.5 0c0.5,-1.16 -0.04,-1.05 3.78,-1.01l10.92 -0.05c2.47,0.24 1.16,-0.12 1.59,1.06l-1.61 0.58c-0.46,0.04 -1.52,-0.02 -2.04,-0.02 -1.47,-0.02 -2.95,-0.01 -4.43,-0.01 -1.73,0.01 -6.8,0.43 -8.21,-0.55zm-7.6 0c0.42,-1.02 -0.22,-0.62 0.89,-0.98l3.29 -0.07c2.19,0.41 0.66,-0.48 1.22,1.05 -0.5,0.38 0.04,0.28 -0.88,0.49 -0.99,0.23 -3.44,0.32 -4.52,-0.49zm-11.73 -2.94l3.82 0 0.04 3.44 -3.85 0.03 -0.01 -3.47zm-100.29 0l3.81 0.05 -0.03 3.29 -3.8 0.15 0.02 -3.49zm-13.32 2.94c0.37,-0.8 -0.33,-1.04 2.61,-1.06 0.02,0 1.62,0.04 1.65,0.05 1.24,0.41 0.47,-0.14 0.98,1.01 -1.21,0.84 -4,0.85 -5.24,0zm-18.5 -0.41c1.43,-1.02 5.76,-0.58 8.23,-0.58 1.47,0.01 2.96,0.03 4.43,0 5.01,-0.08 3.25,-0.17 3.71,0.99l-0.59 0.35c-1.36,0.4 -6,0.19 -7.55,0.19l-6.49 0.06c-3.1,-0.24 -1.12,-0.28 -1.74,-1.01zm-7.51 0.41c0.3,-0.78 -0.35,-1.03 2.44,-1.05 0.16,0 1.62,0 1.67,0.01 2.11,0.42 0.68,-0.36 1.19,1.04 -0.74,0.55 -0.66,0.54 -2.44,0.58 -2.93,0.07 -2.36,-0.19 -2.86,-0.58zm-114.11 -0.41c0.43,-1.5 0.02,-1.19 2.15,-1.18l6.89 0.03c3.72,-0.04 2.42,-0.06 3.02,0.75 -0.52,1.05 0.23,0.54 -0.99,0.89 -0.01,0 -1.5,0.04 -1.61,0.04 -2.02,-0.01 -7.95,0.44 -9.46,-0.53zm230.84 -12.14l2.1 -0.03 3.34 0.02 0.04 2.89 -0.01 2.01 -0.01 5.35 -5.45 0.03 -0.01 -10.27zm-56.27 0.08l5.57 -0.07 -0.01 10.08 -5.55 0.17 -0.01 -10.18zm64.41 -22.67l1.22 -0.02c0.6,1.2 0.39,2.16 0.39,3.74 -0.06,8.14 0.36,21.84 -0.06,28.52l-1.93 0.08c-0.06,-1.63 -0.65,-30.52 0.38,-32.32zm-10.47 -0.03l0.04 32.31 -2 0.01 -0.05 -25.34c0.01,-7.43 -0.78,-6.93 2.01,-6.98zm-22.17 27.87l5.01 -0.08 -0.02 4.58 -4.98 -0.03 -0.01 -4.47zm-7.37 -0.09l5.04 0.05 0.02 4.49 -5.04 0.03 -0.02 -4.57zm-15.56 -27.83c1.35,0.7 0.56,-0.88 0.94,1.34l0.02 29.49c-0.2,2.36 0.15,1.14 -0.96,1.56 -1.32,0.02 -1.05,0.03 -0.99,-3.21l-0.05 -27.43c0.24,-2.79 -0.25,-1.17 1.04,-1.75zm-12.08 -0.01c1.43,0.69 0.58,-0.9 0.98,1.35l0.02 29.9c-0.34,1.78 0.39,0.96 -1.4,1.16 -0.82,-0.99 -0.59,-2.12 -0.58,-3.63l0 -24.96c-0.03,-5.13 -0.17,-3.26 0.98,-3.82zm121.25 0.21l3.13 -0.12 0.02 31.78 -3.1 0.08 -0.05 -31.74zm-489.52 27.56c3.79,-0.03 6.79,1.14 7.42,4.21l-7.35 0.09 -0.07 -4.3zm-2.27 0.21l0 3.93 -7.3 0.18c0.66,-2.92 3.51,-4.81 7.3,-4.11zm-32.28 -2.51l6.59 0.05 0.06 6.47 -6.58 0.04 -0.07 -6.56zm-6.56 0.02l4.22 0.06 0.07 6.43 -4.24 0.06 -0.05 -6.55zm-6.59 0.11l4.37 -0.09 0.06 6.48 -4.41 0.03 -0.02 -6.42zm-8.94 3.18l0.01 -0.8 0.03 -2.45 6.77 0.02 0 6.36 -6.76 0.14 -0.05 -3.27zm-26.52 -0.82c3.83,-0.69 7,1.06 7.34,4.05l-7.28 0.01 -0.06 -4.06zm-2.26 -0.14l-0.03 4.2 -7.21 0.05c0.78,-3.22 3.26,-4.33 7.24,-4.25zm554.3 2.98c1.19,-0.86 14.51,-0.71 16.62,-0.55 2.69,0.2 1.16,-0.19 1.83,0.95 -1.67,1.24 -11.92,0.63 -14.35,0.66 -6.1,0.07 -3.39,0.03 -4.1,-1.06zm-5.34 -30.77l3 0.05 0.05 31.7 -3.03 0.06 -0.02 -31.81zm-125.32 0.03l3.04 0.05 0.04 31.63 -3.06 0.12 -0.02 -31.8zm-20.75 30.74c0.5,-0.35 0.03,-0.25 0.89,-0.44l15.72 -0.1c2.68,0.19 1.19,-0.15 1.85,0.94 -1.57,1.15 -6.61,0.62 -9.55,0.62l-7.3 0.09c-3.01,-0.28 -0.91,-0.04 -1.61,-1.11zm-5.29 -30.75l3 0 0.04 31.75 -3.03 0.04 -0.01 -31.79zm-77.63 21.93l12.94 -0.06 0.08 9.6 -12.89 0.02 -0.13 -9.56zm-5.55 0.04l3.46 -0.04 0.03 9.5 -3.43 0.04 -0.06 -9.5zm-22.18 -0.01l19.77 -0.09 0.07 9.64 -19.75 -0.02 -0.09 -9.53zm-32.67 -0.04l3.22 -0.03 0.11 9.61 -3.25 -0.01 -0.08 -9.57zm-10.12 -0.02l7.75 -0.03 0.06 9.64 -7.7 -0.01 -0.11 -9.6zm-5.71 -0.03l3.31 0.05 0.11 9.56 -3.29 0.04 -0.13 -9.65zm-21.92 0.12l19.66 -0.11 0 9.61 -19.6 -0.03 -0.06 -9.47zm-48.59 -0.11l12.99 0.01 0.06 9.56 -12.85 0.06 -0.2 -9.63zm-2.69 16.92c0.06,7.48 1.03,1.69 0.95,6.42 -0.05,2.39 -0.11,4.82 -0.17,7.23 -6.15,0.21 -47.25,-0.25 -48.14,0.49 -0.06,0.08 -0.14,0.1 -0.15,0.25l-0.28 7.94c-1.04,0.02 -1.85,0.06 -2.89,-0.08 -0.68,-0.1 -1.3,-0.3 -2.42,-0.32 -1.81,-0.04 -3.66,0.16 -5.43,-0.17 -0.55,-6.62 -0.28,-35.59 -0.08,-40.26 4.24,-0.63 49.62,-0.2 56.63,-0.19 1.52,2.35 0.52,0.98 2.38,2.18l-0.02 9.2c-3.14,0.03 -2.62,0.1 -2.61,3.28 0.03,4.28 -0.06,2.34 2.23,4.03zm116.06 -9.66l0.05 -7.17 3.43 -0.05 0.04 9.28c-3.87,1.14 -3.53,-0.34 -3.52,-2.06zm-4.47 2.37l-16.84 -0.03 -0.1 -9.6 19.25 0.02 0.05 6.43c-0.01,2.99 0.72,3.18 -2.36,3.18zm-65.93 -0.02l-0.05 -9.51 3.44 -0.05 0.04 9.41 -3.43 0.15zm-22.21 -3.16l0.05 -6.35 19.95 -0.05 0.05 9.53 -18.09 0.03c-2.56,-0.05 -1.96,-0.36 -1.96,-3.16zm-5.62 -6.35l3.48 -0.05 0.03 9.51 -3 0.03 -0.51 -9.49zm348.66 -18.92l1.92 -0.01c0.36,4.1 0.07,9.39 0.07,13.6 0,3.02 0.82,11.23 -0.36,13.29l-1.62 0.03 -0.01 -26.91zm-6.06 9.62l0.19 17.31 -2.24 -0.02 -0.12 -14.54c-0.02,-2.77 -0.45,-2.69 2.17,-2.75zm-84.48 0.29c0.74,1.45 0.44,14.49 0.32,16.93l-2.34 0.05 -0.08 -14.53c-0.01,-1.09 -0.25,-2.44 0.92,-2.71 1.4,-0.32 1.15,0.25 1.18,0.26zm-9.31 -10c1.76,0.19 1.4,0 1.4,2.38l-0.04 18.15c0,1.21 0,2.42 0.03,3.64 0,0.13 0.02,1.62 0.02,1.63 -0.41,2.01 0.41,0.68 -1.01,1.21 -1.44,-0.02 -0.91,-3.54 -0.92,-6.08l-0.01 -17.72c-0.02,-1.48 -0.21,-2.23 0.53,-3.21zm122.62 21.14l7.52 0.02 0.03 3.83 -7.57 0.04 0.02 -3.89zm-151.56 0.23l7.63 -0.23 0.02 3.84 -7.68 0.04 0.03 -3.65zm80.5 -3.96l1.59 -0.04 3.14 0.04 0.28 3.52 -0.08 1.69 -4.95 -0.03 0.02 -5.18zm-7.39 0.08l5.03 0.04 -0.01 5.02 -5.05 0.09 0.03 -5.15zm-437.02 -1.84c3.02,0.21 4.14,1.62 4.31,4.57l-4.31 0.06 0 -4.63zm-2.24 0.05l0.1 4.53 -4.49 0.01c0.17,-3.09 1.32,-4.52 4.39,-4.54zm517.55 0.46l7.62 -0.12 0.04 2.82 -7.59 0.02 -0.07 -2.72zm-151.39 0.03l7.62 -0.17 -0.03 2.82 -7.55 0.05 -0.04 -2.7zm104.94 -1.3l0.05 -10.9 5.35 0.02 0.09 13.46 -5.47 -0.02 -0.02 -2.56zm-56.26 -10.82l5.55 -0.04 0.02 13.29 -5.57 0.11 0 -13.36zm-126.46 10.41l4.49 -0.16 0.03 2.28 -4.53 0.07 0.01 -2.19zm-7.67 -0.01c1.85,-0.23 4.13,-0.49 5.42,0.42l0.06 1.21c-0.47,0.32 -0.15,0.3 -1.04,0.51l-4.42 -0.07 -0.02 -2.07zm-6.62 0.82c0.14,-0.29 -0.65,-1.63 3.02,-0.99 1.57,0.27 0.82,0.2 1.37,0.59l0.06 1.21 -1.82 0.61c-0.65,0.05 -1.91,-0.04 -2.63,-0.04l0 -1.38zm-8.07 0.81l0 -1.21c0.9,-0.63 0.44,-0.62 3.02,-0.61 2.28,0.02 2.04,-0.05 2.91,0.61l0.02 1.21c-1.19,0.9 -4.7,0.91 -5.95,0zm-6.72 -1.7l4.51 -0.04 0.04 2.24 -4.52 0.06 -0.03 -2.26zm-7.68 -0.03l4.14 -0.05c1.59,0.28 0.73,0.13 1.32,0.57l0.03 1.21c-1.26,0.93 -3,0.59 -5.49,0.55l0 -2.28zm-6.55 1.73l0.01 -1.21c0.11,-0.07 0.25,-0.32 0.32,-0.22l1.45 -0.4c0.64,-0.04 1.88,0.05 2.59,0.05l0.07 1.78c-1.26,0.88 -3.18,0.92 -4.44,0zm-7.89 -1.69l5.65 -0.03 0.05 2.19 -5.7 0.1 0 -2.26zm-6.58 0.88c0.53,-1.16 -0.96,-0.86 1.75,-1.03 0.74,-0.05 2.05,0.13 2.79,0.26l0.03 1.98 -4.57 0.21 0 -1.42zm-7.62 0.81l0 -1.21c1.36,-0.98 3.77,-0.58 5.41,-0.5l0.03 2.22c-2.44,0.11 -4.2,0.44 -5.44,-0.51zm-6.71 -1.67l4.44 -0.07 0.09 2.26 -4.49 0.03 -0.04 -2.22zm-8.09 -0.03c2.07,-0.13 4.57,-0.44 5.81,0.49l0.07 1.21c-1.47,1.05 -4.13,0.6 -5.89,0.52l0.01 -2.22zm-6.61 1.29l0 -0.8c0.48,-0.33 0.11,-0.32 1.01,-0.53l2.42 0.01c0.87,0.24 0.46,0.16 0.96,0.52l0.04 1.77c-0.73,0 -2.05,0.12 -2.66,0.08 -3.19,-0.19 -1.16,-0.31 -1.77,-1.05zm-7.78 -1.19l5.55 -0.14 0.04 2.22 -5.59 0.07 0 -2.15zm-6.66 -0.15l4.51 0.06 0.05 2.08 -4.53 0.22 -0.03 -2.36zm-7.88 0.12l5.64 -0.14 0.06 2.28 -5.66 0.02 -0.04 -2.16zm-6.63 1.63l0 -1.21c1.32,-0.9 2.87,-0.67 4.54,-0.35l0.01 1.95c-0.8,0.13 -1.56,0.24 -2.38,0.24 -1.74,-0.02 -1.6,-0.21 -2.17,-0.63zm-7.6 -1.74c2.22,-0.06 4.21,-0.41 5.45,0.53l0.06 1.21c-1.37,0.98 -3.8,0.61 -5.46,0.53l-0.05 -2.27zm-6.71 0.11l4.47 -0.15 0.08 2.29 -4.53 0.05 -0.02 -2.19zm-8.14 -0.11c2.29,-0.05 4.59,-0.4 5.9,0.53l0.06 1.21c-0.93,0.61 -1.11,0.6 -2.66,0.6 -1.08,0.01 -2.2,-0.02 -3.27,-0.07l-0.03 -2.27zm-6.51 0c0.69,-0.01 1.53,-0.09 2.17,-0.08 1.85,0.02 1.57,0.18 2.16,0.61l0.06 1.21 -1.81 0.62c-0.64,0.06 -1.87,-0.03 -2.56,-0.03l-0.02 -2.33zm-7.74 1.74l-0.01 -1.21c1.44,-0.95 2.68,-0.56 5.46,-0.5l0.12 2.25c-0.97,0.02 -1.99,0.07 -2.95,0.07 -2.68,0.01 -2.18,-0.3 -2.62,-0.61zm-6.71 -1.72l4.47 0.01 0.05 2.15 -4.52 0.15 0 -2.31zm317.37 -4.46c3.91,-0.3 5.41,1.47 4.91,5.36l-4.82 -0.01 -0.09 -5.35zm-2.32 0l0.03 5.32 -4.99 0.06c-0.18,-3.97 0.85,-5.64 4.96,-5.38zm-374.53 2.6l49.47 0.37c0.04,0.08 0.24,0.45 0.3,0.55 0.56,0.93 -0.08,0.15 0.6,0.92 1.19,0.04 2.37,0.06 3.56,0.04 0.34,0 1.37,-0.05 1.62,-0.04 1.99,0.16 0.73,-0.12 1.78,0.56l-57.13 -0.01 -0.2 -2.39zm447.95 -0.45c0.59,-0.95 -0.95,-0.94 3.45,-0.83 1.34,0.03 2.68,0.03 4.02,0.04l0.14 2.56 -7.6 0.08 -0.01 -1.85zm-151.36 -0.83l7.38 0.03 0.17 2.6 -7.6 0.03 0.05 -2.66zm-364.07 1.64l-0.04 -7.05c11.15,-0.27 13.28,5.27 13.25,14.43l-6.63 0c-0.51,-7.12 -4.49,-6.15 -6.58,-7.38zm-8.72 7.22l-6.79 0.18c-0.15,-9.02 2.56,-15.28 13.31,-14.36l0.02 7.36c-4.43,0.37 -6.37,2.32 -6.54,6.82zm127.93 -8.83c0.8,-1.06 0.22,-0.75 2.17,-0.78l174.84 0.01c2.03,0.03 1.45,-0.28 2.13,0.77 -0.6,1.13 0.18,0.84 -2.13,0.85 -0.92,0.01 -1.91,-0.05 -2.85,-0.05 -1.88,0 -3.76,0.02 -5.65,0.03l-163.5 -0.02c-6.08,-0.01 -4.04,0 -5.01,-0.81zm396.37 -7.22c1.52,-0.88 4.11,-1.14 5.58,-0.74 2.18,0.6 1.96,2.56 1.79,5.57l-7.47 0.06 0.1 -4.89zm-144.37 0.35c0.51,1.17 0.35,2.91 0.28,4.45l-7.43 0.09c-0.15,-4.35 -0.83,-6.12 4.62,-5.76 0.47,0.04 1.03,0.08 1.38,0.21 1.35,0.52 0.61,0.17 1.15,1.01zm-111.84 3.88l-101.15 0.05c0.92,-1.31 -0.93,-0.14 1.39,-1.21l49.18 -16.32 49.8 16.62c0.28,0.19 0.41,0.27 0.46,0.29 0.08,0.03 0.01,-0.04 0,0 -0.01,0.04 0.04,0.17 0.32,0.57zm230.13 19.88l0.14 6.64 7.84 0.24c0.4,-1.87 0.34,-2.83 0.35,-4.86 0.02,-3.32 -0.6,-2.1 -0.84,-4.39 -0.45,-4.36 0.26,-27.7 0.59,-31.83l3.6 -0.09c0.06,3.11 0.31,1.92 1.19,3.7l0.02 31.18c-1.64,1.08 -1.19,0.73 -1.17,3.46l-1.98 0.87 -0.12 5.56 2.08 0.81 -0.01 4.44 -9.41 0.1c-0.16,-6.75 1.2,-5.98 -5.51,-5.95 -0.94,0 -1.9,0.04 -2.83,0.04 -0.09,0 -1.2,-0.02 -1.22,-0.02 -1.7,-0.31 -0.77,-0.16 -1.39,-0.62 0.24,-2.28 -0.09,-1.16 1.73,-1.99l0.06 -4.85 -1.75 -1.22 -0.05 -24.74 9.58 -0.02 0.03 17.52c0.01,4.78 0.61,4.53 -0.94,5.31 -2.22,-3.82 1.71,-18.05 -2.05,-19.73 -1.81,-0.81 -4.34,-0.11 -4.95,1.35 -0.4,0.98 -0.32,14.87 -0.27,17.93 0.02,1.53 -0.2,2.03 1.24,2.26 0.44,0.07 3.09,0.05 3.64,0.03 1.7,-0.08 1.4,-0.17 2.4,-1.13zm-54.77 1.68l-2.63 0.1 -0.02 -27.21 22.74 -0.01 0.1 27.13 -3.34 0.08c-0.17,-15.31 2.57,-22.66 -8.4,-22.51 -11.37,0.16 -7.99,6.55 -8.45,22.42zm-37.46 -2.41c-1.42,-1.14 -0.84,-7.83 -0.84,-10.93 0,-3.92 -0.01,-7.84 0.02,-11.76l9.68 -0.09 0.02 25.17 -2.36 0.37 -0.06 5.24c2.42,1.3 2.39,-1.03 2.47,2.53l-10.66 0.12 -0.33 5.77 -9.35 0.15 -0.09 -4.55 2.07 -0.93 0 -5.26 -2.05 -1.05c0.02,-2.1 -0.09,-2.51 -1.12,-3.63l-0.08 -30.6c0.63,-2.51 1.11,-0.27 1.25,-4.1l3.42 0.01c1.16,6.47 0.77,13.72 0.77,20.6 0,3.48 0.06,7.01 0.02,10.49 -0.02,2.07 -1.81,4.33 -0.61,9.82l5.85 0.24c0.37,-0.02 0.75,-0.02 1.11,-0.13 1.84,-0.52 1.1,-3.31 1.16,-6.05 9.05,1.96 7.25,-0.83 7.25,-5.92 -0.01,-2.48 0.34,-12.59 -0.4,-14.01 -1.01,-1.92 -5.7,-2.6 -6.41,0.96 -0.24,1.13 -0.17,2.2 -0.16,3.38l0.06 12.52c-0.2,2.29 -0.12,1.07 -0.63,1.64zm-103.57 -21.81c0.65,-0.92 -0.26,-1.1 2.88,-1.04 1.22,0.02 2.42,0.01 3.63,0.01 2.42,0 4.83,0 7.25,0l39.87 0.01c0.47,-0.01 1.19,-0.05 1.63,-0.02l1.9 0.4 0.21 23.81c-1.47,0.8 -1.21,0.33 -1.18,3.42 -0.44,0.32 -0.18,0.25 -0.91,0.54 -0.07,0.03 -1.04,0.29 -1.13,0.33l-0.1 5.58 2.13 0.33 0 4.49 -2.06 0.83 -0.09 6.02c0.92,1.16 1.13,0.82 1.18,2.87l-2.24 0.49 -0.17 3.83 -7.17 0.03 -0.16 -7.8 -48.57 -0.08 -0.19 -8.61c0.32,-2.52 0.67,2.16 1.01,-5.58l2.19 -0.51 -0.08 -6.1 -2.25 -0.5c-0.91,-2.12 -0.32,-6.48 -0.28,-9.05l1.84 -0.81 0.06 -4.11c2.79,-0.21 7.1,0.88 7.56,-1.17l-0.02 -4.64c-1.59,-0.82 -6.22,-1.28 -6.74,-2.97zm0.08 -10.41l55.56 -0.05c0.76,1.14 1.5,1.68 1.69,2.83 0.22,1.27 0.02,3.39 -0.16,4.33l-57.01 0.06 -0.08 -7.17zm192.13 3.56c1.73,2.22 1.87,1.55 2.54,3.45l-5.57 0.03c0.6,-1.68 1.65,-2.82 3.03,-3.48zm-84.62 0.22c1.61,0.85 2.42,1.74 2.91,3.2l-5.58 0.05c0.62,-1.64 1.24,-2.5 2.67,-3.25zm72.09 -8.21c0.99,3.27 0.99,7.28 0.93,10.95l-5.41 -0.01c-0.27,-13.16 0.68,-10.99 4.48,-10.94zm-59.94 0.03l3.87 -0.02c0.73,3.68 0.79,7.11 0.72,10.95l-5.42 -0.06c-0.13,-4.27 0.25,-6.96 0.83,-10.87zm-135.08 9.58l8.93 -0.36 0.19 3.98c-1.74,-0.33 -3.15,-0.86 -4.75,-1.4 -5.1,-1.71 -3.22,-0.81 -4.37,-2.22zm-148.19 3.65l0.05 -4.02c1.87,-0.01 7.52,-0.4 9.04,0.37 -0.63,1.64 -0.02,0.68 -4.11,2.1 -1.59,0.56 -3.29,1.14 -4.98,1.55zm382.89 20.99l-3.11 -0.02 -0.04 -28.05c1.73,-1.24 1.14,-1.14 1.25,-3.87l16.12 0c0.35,6.38 1.11,1.7 1.08,7.3 -0.01,2.68 0,5.37 0,8.06 -0.01,5.36 0.23,11.28 -0.04,16.58l-3.04 -0.01c-0.12,-4.95 -0.04,-10.02 -0.02,-14.96 0.02,-5.83 0.48,-9.16 -5.97,-9.16 -6.33,-0.01 -6.26,2.89 -6.26,8.75 0,5.13 0.04,10.26 0.03,15.38zm-151.43 -0.02l-3.07 0.01 -0.07 -26.68c0.32,-3.56 0.98,1.14 1.24,-5.27l16.19 0.02c0.09,1.92 -0.22,2.02 0.51,3.61 0.73,1.57 0.57,0.81 0.54,3.69 -0.08,7.44 0.37,18.03 -0.06,24.62l-3.07 0.01c-0.01,-4.99 0.02,-9.99 0.02,-14.96 0.01,-5.79 0.4,-9.16 -5.99,-9.17 -6.35,-0.01 -6.24,2.89 -6.23,8.76 0.02,5.08 0.12,10.3 -0.01,15.36zm68.22 4.77l-5.25 0.16c-0.25,-8.62 -0.84,-32.34 0.91,-39.14l26.93 -0.04c1.13,0 8.09,-0.37 8.85,0.36 0.32,0.53 0.06,-0.51 0.37,0.86 0.08,0.38 0.1,0.76 0.14,1.14 0.88,7.89 0.79,29.92 0.48,36.8l-5.12 0c-0.13,-4.45 0.53,-27.12 -0.31,-29.06 -0.62,-0.69 -5.49,-0.39 -6.42,-0.39 -4.86,0 -16.93,-0.25 -20.34,0.13 -0.61,2.63 -0.16,24.45 -0.24,29.18zm-377.6 -31.91c1.6,-0.62 10.37,-0.32 11.95,-0.26l0.12 2.8 -12.17 0.01 0.1 -2.55zm-3.25 7.36l0.02 19.5c-1.88,-0.52 -1.91,-1.29 -3.58,-1.86 -1.57,-0.53 -9.55,-0.97 -12.36,0.74 -1.14,0.7 -0.74,0.6 -2.06,1.06l-0.04 -22.98c-0.23,-1.38 -0.76,-0.7 -0.69,-2.92 0.07,-1.89 0.45,-1.26 0.67,-2.5 0.17,-0.99 0.03,-2.29 0.2,-3.52l17.72 0.05c0.27,2.04 -0.04,3.11 0.33,4.12 0.29,0.8 0.95,0.7 0.66,2.66 -0.45,3.04 -0.86,-1.66 -0.87,5.65zm-28.75 -7.64l7.68 -0.01 0.13 2.82 -7.81 0.03 0 -2.84zm-3.01 8.84l0.01 56c0.02,1.47 0.09,2.44 -0.95,2.41 -1.55,-0.03 -0.86,-3.68 -0.86,-7.67l0 -35.03c-0.02,-6.39 0.32,-9.72 -2.91,-13.96 -4.84,-6.36 -20.47,-5.9 -25.59,-1.7 -5.63,4.62 -4.72,11.72 -4.73,18.88l0 39.48 -2.54 -0.02 -0.04 -60.8c0.02,-5.11 -1.16,-0.85 -0.06,-7.72 0.16,-1.04 0.04,-2.35 0.13,-3.49l37.4 -0.01c0.18,1.28 0.02,2.43 0.18,3.5 0.22,1.44 0.89,1.06 0.66,3.28 -0.29,2.82 -0.67,-1.33 -0.7,6.85zm-48.11 -8.49c1.25,-0.64 6.22,-0.42 7.57,-0.24l0.06 2.59 -7.92 0.11c-0.07,-1.52 -0.21,-1.42 0.29,-2.46zm-21.25 -5.14l17.98 -0.02c0.96,9.39 0.09,6.32 0.09,15.67 0.01,5.13 0.33,11.46 -0.05,16.45 -3.34,-1.16 -0.7,-2.42 -8.8,-2.4 -1.53,0 -4.07,-0.1 -5.47,0.3 -1.47,0.41 -2.45,1.64 -3.79,2.16 -0.26,-5.44 -0.05,-11.42 -0.05,-16.92l0.02 -6.05c-0.24,-2.33 -0.12,-0.29 -0.67,-1.76 -0.8,-2.15 0.14,-2.27 0.49,-3.26 0.41,-1.18 0.14,-2.84 0.25,-4.17zm-15.37 4.81l12.03 -0.04 0.09 2.79 -12.05 0.05 -0.07 -2.8zm559.44 -3.63l3.24 -0.13 -0.11 3.67 -2.72 -0.44 -0.41 -3.1zm-11.03 6.08c-0.36,-7.77 -0.48,-6.21 8.65,-6.18l0.81 6.18c-2.02,-0.95 -2.69,-3.62 -4.92,-4.29 -2.12,1.54 -2.73,3.36 -4.54,4.29zm-84.22 -0.26l0.61 -5.84 8.4 -0.08 0.56 6.17c-2.38,-0.88 -2.57,-3.24 -4.98,-4.29 -2.2,0.99 -2.03,2.9 -4.59,4.04zm-5.06 -5.83l3.26 -0.1 -0.09 3.44c-0.83,0.34 0.6,0.12 -1.16,0.37 -0.59,0.08 -1.1,0.02 -1.69,0l-0.32 -3.71zm-340.38 -1.21l14.05 0.04 0.02 2.61 -13.9 0.04 -0.17 -2.69zm-31.71 0.04c9.66,-0.44 9.24,-0.49 9.24,2.42l-9.27 0.12 0.03 -2.54zm-51.31 0.34c1.22,-0.61 2.71,-0.39 4.16,-0.38 1.61,0.01 3.22,0.02 4.83,-0.01l0.16 2.6 -9.16 -0.01 0.01 -2.2zm-36.51 -0.35c2.44,-0.04 12.33,-0.34 13.8,0.35l0.12 2.19 -14.04 0 0.12 -2.54zm597.85 1.16c0.39,-0.71 -0.26,-0.89 2.59,-0.89 1.48,0 1.81,-0.19 2.76,0.49l0.01 0.8c-1.01,0.58 -4.18,0.43 -4.38,0.38 -2.07,-0.54 -0.14,-0.09 -0.98,-0.78zm-26.06 -0.4l2.47 -0.49c1.87,-0.01 1.95,-0.08 2.84,0.49 -0.24,1.67 -0.15,1.19 -2.42,1.2 -2.28,0 -2.61,0.55 -2.89,-1.2zm-125.49 0.8l-0.02 -0.8c1.09,-0.77 4.27,-0.49 4.39,-0.46 1.13,0.33 0.46,-0.08 0.98,0.86 -0.54,0.84 0.08,0.53 -1,0.78 -0.3,0.06 -3.39,0.19 -4.35,-0.38zm-25.85 0c0.11,-1.06 -0.73,-1.65 3.63,-1.28 1.55,0.13 0.74,-0.07 1.57,0.48 -0.21,1.5 0.16,1.17 -1.96,1.21 -1.38,0.02 -2.29,0.12 -3.24,-0.41zm67.54 -3.56l3.28 -0.01c0.35,3.71 0.45,3.97 -2.77,3.93l-0.51 -3.92zm44.1 0.04l3.14 -0.08 -0.05 3.9 -2.71 0.07 -0.25 -1.77c-0.12,-0.88 -0.14,-1.22 -0.13,-2.12zm-124.62 -9.45l6.38 -0.1 -0.02 3.15 2.21 0.92 0.04 2.96 2.01 0.81 0.13 3.86 -10.73 -0.01 -0.02 -11.59zm-18.72 -37.61l3.35 -0.01c0,6.79 -0.73,43.89 0.42,47.09 2.14,0.14 4.41,0.09 6.57,0.09 2.9,0 6.21,-0.63 6.23,0.99 0.01,1.43 -1.46,1.1 -3.41,1.06l-13.15 0.03 -0.01 -49.25zm-12.71 48.57c0.4,-1.02 -0.23,-0.63 0.88,-0.99l4.09 -0.05c2,0.42 0.71,-0.2 1.17,1.04 -0.55,0.41 1.01,0.52 -2.82,0.52 -1.65,0.01 -2.2,0.25 -3.32,-0.52zm168.12 -1.52l3.43 -0.02 -0.31 3.87 -2.7 0.02 -0.42 -3.87zm-68.25 -0.03l3.26 0 -0.27 3.92 -2.46 -0.01 -0.53 -3.91zm75.56 -0.87l0 -3.75 15.55 0c0.27,0.46 0.21,0.22 0.41,0.96 0.06,0.21 0.15,1.01 0.22,1.35l1.79 0.64 0.06 2.46 -19.48 0.05c0.72,-1.38 0.49,-0.63 1.45,-1.71zm-97.4 -0.8l0.99 -0.45c1.6,-0.81 0.58,-0.07 1.45,-2.19 0.03,-0.09 0.1,-0.23 0.17,-0.33l15.34 0.02c0.05,7.13 0.42,2.72 1.61,5.39l-19.6 0.06 0.04 -2.5zm-101.77 8.41l-3.62 0.16c-1.2,-4.63 -1.12,-8.1 0.42,-12.63 0.98,-2.88 0.78,-2.65 2.07,-3.41 4.34,2.74 1.4,13.43 1.13,15.88zm219.47 -8.41c0.6,-0.38 -0.5,-0.24 1.28,-0.48l30.13 0.1 0.07 1.98 -31.47 0.12 -0.01 -1.72zm-151.33 -0.4l31.33 -0.02 0.05 1.99 -31.42 0.14 0.04 -2.11zm-300.02 -1.17l12.12 -0.09 0.08 2.99 -12.18 0.03 -0.02 -2.93zm-21.81 -0.08l19.46 -0.02 0.09 3.01 -19.54 0.02 -0.01 -3.01zm-10.13 -0.04l7.84 0.02 0.06 2.99 -3.76 0.06 -0.4 -0.02 -3.75 0 0.01 -3.05zm-41.15 -0.02l38.86 0.05 0.05 2.94 -38.92 0.09 0.01 -3.08zm-10.25 0.15l7.91 -0.09 0.1 2.83 -8.03 0.18 0.02 -2.92zm-21.86 -0.09l19.55 -0.02 0.11 3.01 -19.65 0.04 -0.01 -3.03zm-14.45 0.03l4.06 -0.08 4.43 0.03 3.62 0.03 0.05 2.9 -7.3 0.1 -4.86 0.01 0 -2.99zm202.2 -6.04c3.25,2.49 4.13,11.75 2.46,16.16l-3.67 0.09c-0.22,-5.48 -3.11,-12.54 1.21,-16.25zm170.75 11.68l-11.62 -0.04c-0.4,-25.77 -0.2,-56.12 -0.11,-82.1l3.3 -0.04c0.58,4.75 0.21,34.23 0.2,43.52 -0.01,4.46 -1.29,3.81 9.43,3.8 7.37,-0.02 7.99,0.97 7.99,-2.59 0,-13.86 -0.41,-31.02 0.07,-44.68l3.25 -0.05c0.81,9.1 -0.1,62.62 0.22,78.16 0.11,5.42 0.3,3.27 -1.05,3.9 -1.67,-0.75 -0.79,0.62 -1.11,-1.85 -0.16,-1.31 0.33,-0.55 -0.33,-1.84l-7.82 -0.19c-3.15,-0.01 -2.07,1.21 -2.42,4zm156.66 -6.87l18.86 -0.1 0.01 2.44 -18.78 0.11 -0.09 -2.45zm-35.17 -0.07l33.07 -0.04 0.05 2.47 -33.03 0.09 -0.09 -2.52zm-20.95 -0.03l18.76 -0.03 0.02 2.57 -18.65 0 -0.13 -2.54zm-263.61 22.21c1.29,-1.56 30.25,-10.64 32.77,-11.48 4.24,-1.42 31.77,-11.12 33.64,-11.11 2.37,0.02 28.73,9.5 33.37,11 5.39,1.76 11.01,3.69 16.58,5.57 2.49,0.84 15.53,4.69 16.51,6.05 -8.43,0.05 -9.13,-0.81 -17.59,-3.69l-32.52 -10.95c-2.37,-0.79 -14.97,-5.31 -16.34,-5.33 -1.6,-0.01 -41.33,13.7 -48.61,16.15 -6.18,2.08 -10.15,4.23 -17.81,3.79zm359.16 -22.48c0.59,-1.09 -0.37,-0.57 1.2,-0.86l7.29 0c3.09,0.01 6.17,0.01 9.26,0.01l16.16 -0.06c2.45,0.18 1.13,-0.18 1.66,0.91 -0.09,0.06 -0.23,0.05 -0.29,0.18 -0.27,0.63 -7.41,0.36 -8.27,0.36l-18.12 0c-1.48,0 -2.95,-0.01 -4.43,0l-3.59 -0.06c-0.98,-0.27 -0.31,-0.03 -0.87,-0.48zm-151.61 0c0.57,-0.94 -0.92,-0.91 3.84,-0.88l27.39 0.02c4.93,-0.02 3.55,-0.16 4.2,0.86 -0.1,0.06 -0.25,0.04 -0.31,0.19 -0.06,0.14 -0.23,0.13 -0.32,0.17 -1.77,0.48 -26.35,0.18 -30.15,0.18 -1.87,0.01 -3.33,0.33 -4.65,-0.54zm-298.69 -1.61c0.36,-0.82 -0.32,-0.93 2.51,-0.92l10.85 0.07c1.02,0.36 1.89,1.54 -0.73,1.78l-10.56 0.01c-3.31,-0.03 -1.49,-0.23 -2.07,-0.94zm-20.21 0c0.54,-1.17 -1.48,-0.97 4.2,-0.92l12.12 -0.05c2.65,0.21 1.14,-0.25 1.7,0.97 -0.52,1.08 1.35,0.93 -4.16,0.89l-12.13 0.06c-3.35,-0.24 -1.14,-0.31 -1.73,-0.95zm-11.57 0c0.49,-1.17 -1.32,-0.94 4.49,-0.93 3.28,0.01 4.84,-0.57 4.84,0.93 -0.01,1.39 -0.36,0.89 -4.44,0.89 -0.91,0.01 -1.97,0.08 -2.85,0.06 -3.11,-0.08 -1.5,-0.31 -2.04,-0.95zm-39.89 0c0.5,-1.11 -1.25,-0.95 4.11,-0.92l24.16 0c1.61,0 3.22,0 4.83,-0.01 5.09,-0.01 3.98,-0.38 4.63,0.93 -0.54,1.08 1.41,0.94 -4.22,0.9l-31.45 0.03c-3.21,-0.07 -1.54,-0.34 -2.06,-0.93zm-11.36 0c0.57,-1.25 -1.67,-0.94 5.4,-0.93 5.11,0 3.23,-0.22 3.79,0.93 -0.58,1.17 1.45,0.88 -4.6,0.89 -6.77,0.03 -3.76,0.09 -4.59,-0.89zm-20.45 0c0.54,-1.32 -0.38,-0.92 4.51,-0.92l11.71 -0.04c2.29,0.06 1.54,-0.18 2.03,0.96 -0.51,1.15 0.99,0.89 -5.29,0.89l-10.49 0.03c-2.81,0.03 -1.96,-0.31 -2.47,-0.92zm-16.17 0c0.53,-1.18 -0.99,-0.75 1.7,-0.96 0.54,-0.04 1.83,0.04 2.47,0.05l7.68 -0.06c2.58,0.06 1.61,-0.21 2.2,0.97 -0.51,1 0.23,0.52 -1,0.87 -0.14,0.03 -1.78,0.03 -2.03,0.03 -1.35,-0.02 -2.69,-0.01 -4.04,-0.02l-5.68 0.03c-2.3,-0.4 -0.42,0.05 -1.3,-0.91zm550.59 -2.91l17.01 -0.06 -0.04 2.48 -16.84 0.07 -0.13 -2.49zm-18.94 -0.01l16.62 -0.06 0.02 2.53 -16.61 0.06 -0.03 -2.53zm-37.31 0.15l35 -0.21 -0.02 2.51 -34.92 0.05 -0.06 -2.35zm-18.93 0.01c2.13,-0.46 14.66,-0.46 16.73,0.03l0.06 2.23 -16.78 0.1 -0.01 -2.36zm-19.09 -0.18l16.77 -0.04c0.08,3.2 0.13,2.6 -3.38,2.56l-13.32 0.01 -0.07 -2.53zm-261.64 27.04c1.29,-1.44 17.09,-6.25 20.09,-7.26l62.12 -20.79c0.87,-0.08 81.36,26.64 82.79,27.7 -3.96,2.48 -17.76,-3.12 -21.64,-4.42l-60.56 -20.27c-1.16,-0.12 -36.11,11.84 -40.31,13.29 -6.82,2.36 -13.36,4.5 -20.21,6.78 -7.54,2.52 -13.13,5.49 -22.28,4.97zm375.62 -26.12c0.48,-1.15 -1.3,-1.02 4.11,-0.96l31.46 -0.04c2.45,0.23 1.14,-0.17 1.64,1l-36.3 0.45c-0.83,-0.2 -0.43,-0.12 -0.91,-0.45zm-154.11 -0.4c1.51,-1.2 7.27,-0.56 9.22,-0.55l26.62 -0.04c2.16,0.23 1.15,-0.01 1.55,0.99 -1.52,1.12 -25.83,0.52 -28.58,0.52l-7.29 0.04c-2.51,-0.26 -1.07,-0.42 -1.52,-0.96zm-410.66 -1.21c0.41,-1.85 0.18,-1.21 3.33,-2.98l50.17 -28.36c2.29,-1.3 5.97,-3.08 7.8,-4.53 2.29,0.54 12.91,7.04 15.68,8.65l42.5 24.35c1.93,1.07 3.02,0.91 3.27,3.36 -9.92,0.42 -20.68,0.08 -30.69,0.06l-88.19 0.01c-0.48,0.01 -1.63,0.07 -2.03,0.03l-1.84 -0.59zm564.34 -4.07l39.11 0.01 0.03 2.4 -39.14 0.07 0 -2.48zm-20.59 1.65c0.61,-1.02 -1.09,-0.84 4.19,-0.81l9.66 0c4.51,-0.03 3.88,-0.46 4.46,0.81 -0.44,1.06 1.25,0.88 -4.05,0.85l-12.12 0.05c-3.13,-0.06 -1.55,-0.33 -2.14,-0.9zm-16.32 0.4c0.26,-1.97 1.06,-1.2 6.82,-1.21 1.34,0 2.69,0.01 4.03,-0.01 0.31,-0.01 1.85,-0.05 2.04,-0.02 1.96,0.34 0.64,-0.34 1.19,0.84 -0.3,0.69 0.33,0.91 -2.82,0.87 -1.35,-0.02 -2.69,-0.02 -4.04,-0.02 -1.21,0 -2.42,0 -3.63,0.01 -1.48,0.02 -2.56,0.25 -3.59,-0.46zm-39.98 -0.4c0.74,-1.37 0.73,-0.81 5.32,-0.8 2.06,0 4.1,0.07 6.15,-0.17l-0.13 -27.26 14.97 -0.09 0.03 27.28c1.96,0.41 6.42,0.22 8.79,0.21 2.69,-0.02 2.21,0.17 2.61,0.83 -0.63,1.16 0.95,0.71 -1.77,0.9l-26.63 -0.05c-1.61,0 -3.22,0 -4.83,0.01 -6.33,0.03 -3.78,-0.09 -4.51,-0.86zm-16.2 0c0.49,-0.79 0.03,-0.87 2.98,-0.82l9.71 -0.02c2.08,0.34 0.62,-0.37 1.29,0.84 -0.36,0.72 0.28,0.9 -2.92,0.86l-9.72 0.03c-2.67,-0.44 -0.64,-0.23 -1.34,-0.89zm-20.51 0c0.62,-1.06 -1.03,-0.84 4.17,-0.8 1.61,0 3.23,0 4.83,0l7.29 -0.04c2.14,0.04 1.49,-0.24 2.02,0.84 -0.48,1.04 1.17,0.87 -4.07,0.86l-12.12 0.04c-3.15,-0.05 -1.55,-0.33 -2.12,-0.9zm-41.4 -1.61l39.14 -0.03 0 2.43 -39.16 0.04 0.02 -2.44zm-142.9 2.53l0.08 -2.45 10.36 -0.1 0.15 2.58c-2.46,-0.15 -3.69,-1.2 -5.35,-1.21 -1.86,-0.01 -2.89,1.12 -5.24,1.18zm280.46 -5.35l-0.01 1.21 -2.56 0.39c-1.08,0 -2.16,-0.02 -3.24,-0.02l-19.21 -0.08c-0.1,-2.34 -0.15,-2 4.72,-1.98l20.3 0.48zm-81.14 1.21l-0.03 -1.21c1.66,-1.08 23.4,-0.51 25.04,-0.44l0.02 1.65c-2.1,1.12 -9.58,0.36 -12.52,0.37 -2.98,0 -10.36,0.75 -12.51,-0.37zm134.53 -25.17c1.37,0.94 0.75,1.02 0.76,5.44 0,2.39 0.46,17.41 -0.36,18.99l-1.2 0.07c-0.96,-1.54 -0.61,-17.1 -0.44,-19.06l0.47 -4.42c0.29,-1.03 -0.06,-0.47 0.77,-1.02zm-5.21 19.94l-0.03 -13.33c0.02,-2.11 -0.25,-1.74 1.21,-2.06 1,1.59 0.48,15.92 0.49,18.21 0.01,2.53 0.14,1.24 -0.89,1.76 -1.11,-0.64 -0.77,1.16 -0.78,-4.58zm-5.89 -10.07c1.59,-2.76 1.1,-1.42 1.08,-6.45 0,-1.2 0.01,-2.41 -0.01,-3.62 -0.06,-4.2 -0.14,-2.83 0.77,-3.38 1.04,0.48 0.55,-0.22 0.91,0.95l0.03 5.64c0.35,2.85 0.84,-1.4 0.86,6.46 0,4.96 0.13,10.11 -0.02,15.05l-3.31 -0.1c-0.11,-3.82 0.47,-11.38 -0.31,-14.55zm-1.8 14.5l-9.36 0.13c-0.13,-11.22 -1.45,-15.48 4.54,-15.44 4.23,0.02 4.82,1.08 4.82,5.23 -0.01,3.36 0.04,6.73 0,10.08zm-18.69 -4.03l-0.02 -14.51c0.34,-1.82 0.03,-0.6 0.6,-1.31 0.97,0.46 0.55,-0.15 0.88,0.92l0.11 17.76c-0.26,1.31 0.09,0.83 -0.99,1.32l-0.63 -1.74c-0.05,-0.56 0.06,-1.78 0.05,-2.44zm-3.85 -20.32c1.15,0.58 0.85,1 1.5,5.07 0.24,1.56 0.08,4.68 0.08,6.39 0,3.04 0.78,10.76 -0.37,12.93l-1.21 0.13c-1.28,-1.8 -0.54,-18.11 -0.6,-21.52 -0.05,-3.39 0.2,-2.48 0.6,-3zm-118.48 23.14c0.02,-5.15 -0.15,-18.18 0.46,-21.77 0.34,-2.05 -0.35,-0.59 0.83,-1.37 1.05,0.6 0.71,-0.73 0.89,1.75 0.04,0.57 -0.05,1.81 -0.06,2.46l-0.04 19.3c-0.15,0.74 -0.13,0.49 -0.38,0.92l-1.21 0.06c-0.5,-0.68 -0.51,0.98 -0.49,-1.35zm-3.96 -3.22l-0.04 -13.74c0.18,-2.15 -0.13,-1.09 0.86,-1.68 1.15,0.59 0.86,0.48 0.85,3.74l0.06 14.54c-0.18,2.49 0.18,1.13 -0.91,1.74 -1.07,-0.61 -0.69,0.79 -0.87,-1.74 -0.05,-0.72 0.05,-2.06 0.05,-2.86zm-7.68 4.4l-9.22 0.16c-0.12,-3.35 -0.05,-6.53 -0.04,-9.8 0.01,-4.17 0.01,-5.65 4.47,-5.63 4.28,0.02 4.81,1.05 4.8,5.22 0,3.34 0.07,6.72 -0.01,10.05zm-18.07 -19.81c1.11,0.53 0.74,-0.78 0.95,1.67l0 15.77c0.01,2.27 -0.07,1.83 -0.56,2.53 -1.39,-0.55 -0.84,1.07 -1.08,-1.69l0.05 -16.98c0.37,-1.97 -0.04,-0.52 0.64,-1.3zm-4.44 -4.52c0.94,0.5 0.54,-0.11 0.88,1 0.09,0.29 0.07,1.2 0.09,1.58 0.33,4.73 0.47,2.47 0.46,9.29l0.04 11.33c-0.28,1.37 0.1,0.83 -1.07,1.31 -1.47,-0.7 -0.92,0.28 -0.91,-5.39 0.01,-2.6 -0.67,-17.37 0.51,-19.12zm-5.12 24.81l-0.04 4.39 -7.48 0.09c0.53,-1.67 0.91,-1.5 2.06,-2.65 1.73,-1.71 5.71,-6.22 7.96,-6.74 -0.23,5.83 0.1,3.91 -2.5,4.91zm-130.57 -6.08l8.11 -0.05 0.09 13.48 -5.5 -1.7c-0.27,-6.53 0.89,-5.94 -3.23,-6.02l0.53 -5.71zm65.2 4.37c-0.77,1.42 -0.08,1.39 0.09,2.54 0.46,3.19 -4.29,3.75 0.06,7.17 -0.27,3.91 -3.12,6.36 -0.98,14.5 -1.38,1.24 -1.06,0 -1.81,1.67l-0.38 0.98c-0.05,0.09 -0.11,0.23 -0.18,0.33l-51.38 -17.17c-0.51,-1.67 -0.22,-9.31 -0.19,-12.43 20.76,-0.63 46.52,-0.1 67.39,-0.07l0.08 33.13c0.04,2.95 -0.04,1.01 -0.89,1.72 -2.01,-1.81 -0.54,-2.39 -1.08,-7.29l-3.29 -0.42c0.67,-8.69 3.43,-10.86 -1.82,-18.17 0.33,-1.05 0.79,-1.56 0.61,-3 -3.56,-1.1 -1.21,3.34 -5.45,3.88 0.63,-2.21 2.42,-2.73 2.1,-4.21 -0.47,-2.16 -1.24,-3.83 -2.88,-3.16zm-140.86 7.4c-3.23,-0.52 -2.21,-2.49 -4.1,-4.34 -2.47,0.33 -1.17,1.79 -0.79,3.43 -5.65,8.1 -1.97,12.01 -1.83,18.26 -4.1,-0.02 -3.29,-0.69 -3.35,7.21l-9.4 3.1c-4.92,1.81 5.51,2.14 -13.62,2.13 -7.23,0 -29.62,0.5 -37.39,-0.1l-0.05 -8.43c-0.38,-2.03 -1.78,-0.93 -0.32,-4.35 0.51,-1.21 0.58,-4.8 0.15,-5.98 -1.56,-4.33 -0.74,-2.17 0.18,-4.87 0.29,-0.88 0.16,-2.09 0.2,-3.05l4.17 -0.09c0.64,-1.6 0.48,-3.61 0.32,-5.44l-6.72 -4.04 -0.18 -3.61c0.14,-0.06 0.29,-0.26 0.35,-0.17 0.05,0.09 0.24,-0.12 0.31,-0.15 1.8,-0.83 1.23,-0.34 1.88,-1.7l136.61 0 0.07 6.13c-4.15,0.07 -3.04,0.1 -3.18,6.1l-59.65 19.07 -0.42 -1.19c-0.31,-0.46 -0.22,-0.25 -0.62,-0.55l-0.88 -0.56c0.44,-2.82 0.78,-4.52 0.45,-7.63 -0.29,-2.72 -1.38,-4.68 -1.61,-6.87 0.59,-0.44 1.18,-0.84 1.65,-1.24 0.35,-3.48 -0.91,-3.07 -1.83,-5.2 0.34,-1.22 0.95,-1.85 0.51,-3.4 -1.47,-0.31 -1.39,-0.25 -1.98,0.76 -0.05,0.1 -1.04,2.48 -1.05,2.52 -0.38,1.62 1.6,1.93 2.12,4.25zm326.02 -13.63c3.45,0.18 9.68,2.16 11,4.28l-10.98 0 -0.02 -4.28zm-6.76 4.63c-0.05,0.1 -0.14,0.14 -0.15,0.31 -0.02,0.16 -0.12,0.22 -0.14,0.3l-0.17 3.36 -3.51 0.06 -0.04 -22.44 1.91 0.01 0.21 12.21 1.74 0.05c0.27,-3.15 -0.03,-10.78 0.57,-12.05l1.21 -0.11c0.53,0.88 0.24,-0.9 0.52,1.4l0.11 11.31c2.24,0.97 2.41,-1.04 2.22,5.22 -1.56,0.04 -3.34,-0.13 -4.48,0.37zm-32.02 -4.79l2.14 -0.73c0.35,-2.99 0.06,-7.38 0.09,-10.58 0.02,-2.31 -0.36,-2.08 1.62,-2.14l0.41 6.6c0,1.62 -0.66,5.55 1.22,5.56 1.76,0.03 1.08,-3.98 1.09,-5.56l-0.06 -5.29c0.23,-1.33 -0.1,-0.84 0.97,-1.36 1.41,0.65 1.02,-0.83 1,5.04l0.03 17.17 -3.54 -0.01c-0.08,-5.19 0.57,-4.23 -4.89,-4.25l-0.08 -4.45zm-2.25 0.39l0.01 3.94 -10.94 0.16c0.59,-1.19 0.91,-1.18 2.09,-1.73 2.31,-1.1 6.19,-2.72 8.84,-2.37zm-363.79 2.72l3.85 0 0.06 2.52c-1,-0.27 -1.1,-0.29 -2.06,-0.82 -2.28,-1.26 -1.33,-1.17 -1.85,-1.7zm-125.47 2.57l0.02 -2.44 4.16 -0.18c-0.8,1.44 -2.66,2.32 -4.18,2.62zm290.32 -7.7l0.06 -3.98 3.68 -0.1c0.14,1.83 -0.21,1.99 0.58,3.44 2.39,0.28 1.73,-1.27 1.76,-3.39l8.58 -0.04c0.17,2.41 -0.39,3.69 2.07,3.42l0.33 -3.31 10.01 -0.08c0.15,1.35 -0.24,3.44 1.2,3.5 1.57,0.07 1.02,-1.91 1.18,-3.48l8.82 -0.02c0.11,1.55 -0.34,3.32 0.92,3.52 1.63,0.25 1.13,-2.15 1.2,-3.45l9.65 -0.08c0.16,1.37 -0.26,3.47 1.18,3.52 1.59,0.05 1.11,-2.08 1.22,-3.47l8.54 -0.07c0.28,2.13 -0.52,3.67 2.08,3.43l0.31 -3.33 3.92 -0.09 0.16 7.79 -67.42 -0.05 -0.03 -3.68zm117.15 6.13l0.03 -26.8 3.76 -0.05c0,1.71 0.54,22.88 -0.5,24.31l-3.29 2.54zm-287.83 -4.11c1.14,-1.07 10.54,-0.98 11.94,0 -0.39,0.64 0.15,0.92 -2.67,0.91 -1.08,-0.01 -2.16,-0.03 -3.24,-0.03 -3.55,-0.02 -5.15,0.53 -6.03,-0.88zm-121.77 0.4c0.27,-0.66 -0.33,-1.05 2.54,-1.06 1.99,0 7.96,-0.42 9.39,0.66 -0.73,0.87 0.8,0.24 -0.98,0.76 -0.27,0.08 -1.19,0.09 -1.52,0.09 -2.73,0.04 -7.79,0.53 -9.43,-0.45zm456.3 3.04l0.01 -18.14c1.58,0.7 1.87,1.79 2.82,3.13 1.78,2.52 6.57,8.3 7.01,10.42 -2.27,1.08 -7.53,4.11 -9.84,4.59zm73.76 -8.65c7.49,0.35 19.44,4.72 21.16,9.72 -7,-0.19 -2.03,-0.54 -9.78,-4.13 -3.59,-1.67 -6.8,-2.46 -11.23,-2.92l-0.15 -2.67zm-57.55 9.7c1.17,-2.87 5.5,-5.34 8.7,-6.72 4.03,-1.75 7.64,-2.35 12.35,-3.05l0.09 2.45c-2.08,0.92 -9.2,0.83 -15.5,5.64 -2.58,1.96 -1.41,1.66 -5.64,1.68zm-193.32 3.12l-4.03 0.09 0.01 -18.13c3.97,-0.82 4.46,1.29 6.47,3.18 1.58,1.48 4.6,3.96 0.81,5.77 -0.41,-0.42 -0.42,-0.25 -0.71,-1.08 -0.36,-1.04 0,-1.96 -1.31,-3.29 -3.13,0.12 0.45,2.98 -1.24,13.46zm-8.82 -14.06c0.02,-1.59 1.02,-3.47 2.56,-4.21l0 5.56c-1.8,-0.29 -1.62,-0.22 -2.56,-1.35zm310.93 14.16l-3.25 0.03c-0.11,-4.87 -0.02,-9.76 -0.02,-14.59 0.01,-6.8 0.13,-3.7 0.76,-6.5l0.04 -5.62c0.32,-2.12 -0.37,-0.62 0.81,-1.32 0.75,0.33 1.03,-0.38 0.96,2.96 -0.03,1.35 -0.03,2.69 -0.03,4.03 0,1.19 -0.06,2.5 -0.03,3.67 0.06,2.36 0.6,1.5 1.25,2.78 -1.07,2.59 -0.48,11.01 -0.49,14.56zm-139.38 -15.01c1.39,-0.76 1.22,-0.26 1.27,-2.33l-0.06 -7.29c0,-0.3 -0.06,-1.88 -0.03,-2.05 0.3,-2.01 -0.37,-0.64 0.83,-1.32 0.74,0.35 0.99,-0.35 0.92,2.96 -0.18,8.04 0.83,1.08 0.84,10.08 0.01,4.95 0.15,10.1 -0.02,15.03l-3.13 -0.01c-0.1,-3.6 0.43,-12.74 -0.62,-15.07zm-13.2 15.06l-3.31 -0.04 -0.06 -18.23c0.15,-3.8 0.96,0.51 0.85,-6.41 -0.06,-4.22 -0.08,-2.86 0.82,-3.36 0.75,0.33 1,-0.41 0.92,2.95l0.11 9.11c0.03,0.07 0.05,0.14 0.08,0.19 0.53,1.32 -0.74,-0.72 0,0 0.07,0.07 0.15,0.15 0.25,0.26l0.76 0.52c-0.85,4.49 -0.39,10.08 -0.42,15.01zm-319.11 -14.61c-0.22,-2.29 -0.78,-13.29 0.76,-15.02 0.88,-0.98 2.41,-1.4 3.84,-0.82 2.72,1.08 1.92,5.09 1.93,8.59 0.01,3.66 0.03,7.31 0.06,10.97 -1.56,-0.38 -5.49,-2.63 -6.59,-3.72zm-92.09 3.62l-0.02 -11.27c0.01,-3.41 -0.64,-7 1.94,-8.13 1.37,-0.6 2.92,-0.22 3.81,0.71 1.62,1.72 0.84,12.56 0.83,15.66 -2.02,0.75 -4.45,2.97 -6.56,3.03zm512.54 -9.26c1.12,0.22 33.48,16.36 37.48,18.93l0.04 2.33 -12.82 0.03c-0.1,-4.38 -0.42,-5 -2.7,-7.4 -5.41,-5.67 -13.85,-8.02 -21.96,-9.01l-0.04 -4.88zm-61.19 21.28l-12.42 0.03 -0.15 -2.51c2.54,-1.4 34.77,-18.17 37.36,-18.68l0.02 4.81c-7.44,0.44 -17.18,3.71 -21.88,8.84 -2.91,3.17 -2.29,2.49 -2.93,7.51zm-142.42 -71.67c6.87,10.49 17.22,28.58 24.27,40.55 1.8,3.06 7.37,11.29 8.12,14.08l-65.2 0.01c0.61,-2.16 21.36,-36.2 24.35,-41.17l7.03 -11.9c0.05,-0.08 0.43,-0.72 0.46,-0.75 0.72,-0.86 0.31,-0.37 0.97,-0.82zm256.37 42.66l10.67 -0.1 0.02 10.63 -10.6 0 -0.09 -10.53zm-152.64 0l10.64 -0.11 0.05 10.66 -10.63 0 -0.06 -10.55zm169.55 3.62c2.58,-0.13 1.94,-0.27 3.04,0.49l0.03 1.2c-1.2,0.75 -0.64,0.56 -3.04,0.46l-0.03 -2.15zm-26.14 0.05c2.59,-0.2 1.94,-0.29 3.03,0.44l0.01 1.21c-0.76,0.49 0.03,0.65 -3.02,0.41l-0.02 -2.06zm-126.51 -0.05l3.23 0.02 0.03 2.03 -3.22 0.16 -0.04 -2.21zm-26.15 0.04c2.88,-0.19 2.04,-0.25 3.03,0.45l0.02 1.21c-0.5,0.31 0.18,0.38 -1.37,0.53 -0.42,0.04 -1.2,-0.08 -1.65,-0.12l-0.03 -2.07zm109.13 0.04l0.59 -0.39c0.07,-0.04 0.22,-0.11 0.31,-0.15l1.8 -0.42c0.6,-4.66 -0.4,-3.58 1.79,-7.44 1.21,-2.16 2.18,-3.81 3.36,-5.9 1.36,-2.4 5.57,-10.61 7.1,-11.9 0.66,0.53 0.48,0.31 1.01,1.06 5.48,7.83 13.68,21.47 19.38,30.15 1.7,2.58 2.25,2.34 2.22,6.26 -0.01,2.95 0.07,5.94 -0.05,8.88 -2.31,-0.69 -28.37,-14.35 -33.43,-16.89 -0.91,-0.44 -1.47,-0.74 -2.41,-1.21 -1.72,-0.87 -1.48,-0.39 -1.67,-2.05zm-8.46 0.41c0.31,-1.76 0.56,-1.16 2.87,-1.16 4.18,0.01 3.02,-0.36 3.29,1.16l-0.56 0.27c-0.85,0.17 -4.42,0.37 -5.6,-0.27zm-25.67 0c0.39,-1.59 0.6,-1.16 2.76,-1.16 2.23,-0.01 2.97,-0.61 3.4,1.16 -1.28,0.64 -5.16,0.61 -6.16,0zm-139.54 -6.66l3.49 -0.03 0.07 10.58c-1.43,-0.73 -0.92,-0.29 -1.83,-1.89 -2.37,-4.19 -1.71,-2.67 -1.73,-8.66zm243.31 3.44c0.47,-1.15 -1.29,-1.01 3.71,-0.99 5.52,0.03 3.59,-0.32 4.08,0.99l-1.64 0.54c-1.44,0.09 -5.06,0.2 -6.15,-0.54zm-30.89 0c0.46,-1.13 -0.65,-0.99 3.99,-0.98 5.04,0.02 3.6,-0.12 3.95,0.98 -1.09,0.85 -1.16,0.5 -3.95,0.5 -1.71,0.01 -2.95,0.29 -3.99,-0.5zm-64.5 -1.73l14.98 -0.12 0.06 1.84c-0.89,0.59 0.94,0.19 -1.31,0.51 -0.38,0.06 -1.57,0.02 -2.02,0.02l-11.73 -0.06 0.02 -2.19zm-57.25 1.33l6.18 -0.63c2.46,0.18 1.16,-0.15 1.59,1.03 -0.09,0.06 -0.2,0.06 -0.26,0.18 -0.05,0.13 -0.2,0.15 -0.27,0.17l-5.58 0.19c-2.89,-0.2 -1.12,-0.34 -1.66,-0.94zm-30.92 0.4c0.37,-0.86 -1.02,-1.03 3.63,-0.99 1.91,0.01 2.93,-0.3 4.23,0.59 -0.61,1.14 1.2,0.89 -3.83,0.9 -1.76,0 -2.96,0.3 -4.03,-0.5zm105.5 -0.4l-0.03 -1.22c1.36,-0.63 7.58,-0.61 8.94,0l0.05 1.22c-1.11,0.55 -7.82,0.62 -8.96,0zm-28.67 -0.41c0.49,-1.26 -1.46,-1 4.52,-1.02 0.78,0 1.72,-0.08 2.45,-0.06 2.71,0.07 1.63,-0.15 2.2,1.08 -0.68,1.01 0.59,0.67 -1.79,0.81l-5.31 0c-2.8,-0.04 -1.43,-0.25 -2.07,-0.81zm-139.25 -2.63c0.53,0.71 0.47,0.48 0.12,1.24 -0.46,-0.97 -0.12,-0.39 -0.12,-1.24zm234.79 -2.43c0.52,0.83 0.68,0.86 0.32,2.57 -1.34,-0.04 -1.3,0.36 -1.53,-0.77 -0.36,-1.77 0.41,-1.5 1.21,-1.8zm-152.64 0.04c0.36,0.49 0.41,0.06 0.56,1.02 0.1,0.69 -0.19,1.5 -0.19,1.52 -1.36,-0.03 -1.34,0.38 -1.58,-0.78 -0.39,-1.84 0.4,-1.51 1.21,-1.76zm-351.35 4.39l0.06 -3.5c2.69,-0.76 3.35,-1.89 4.9,-2.28 0.48,3.81 -1.26,7.01 -4.96,5.78zm-40.4 -5.38c1.51,-0.15 2.12,0.76 3.91,1.59 1.12,0.52 1.01,0.12 1.29,1.61 0.96,5.05 -5.63,3.19 -5.2,-3.2zm480.64 2.64l-25.9 -0.03c0.8,-1.09 -0.44,-0.47 3.01,-1.9 1.01,-0.42 2,-0.86 3.12,-1.33 9.34,-3.93 4.9,-3.54 16.46,1.16 0.61,0.25 1.26,0.44 1.73,0.66 2.13,0.99 0.69,-0.17 1.58,1.44zm-103.38 -7.93c1,0.37 1.04,-1.26 1.03,3.65 -0.02,4.2 0.01,3.15 -1.03,3.75l-0.5 -1.71c-0.07,-1.35 -0.18,-4.64 0.5,-5.69zm180.82 -0.04c0.43,0.53 0.47,-0.41 0.62,1.65l0.01 4.08c-0.2,2.71 -0.05,0.99 -0.63,1.68 -1.21,-0.91 -1.11,-3.7 -0.93,-5.78 0.19,-2.11 -0.01,-1.14 0.93,-1.63zm-28.19 7.42c-0.06,-0.09 -0.15,-0.33 -0.17,-0.28 -0.01,0.05 -0.12,-0.22 -0.14,-0.3 -0.1,-0.47 -0.12,-0.61 -0.14,-1.11l0.45 -5.68c1.39,0.49 0.66,-0.87 1.05,1.18l-0.02 2.46c-0.01,5.15 -0.78,3.22 -1.03,3.73zm-124.04 -7.35c0.5,0.94 0.47,4.26 0.4,5.66 -0.07,1.47 0.07,0.74 -0.4,1.7 -1.88,-0.57 -1.32,-1.36 -1.33,-3.74 -0.03,-4.63 -0.03,-3.48 1.33,-3.62zm-446.51 43.08l-0.15 2.84 -8.02 0.06c-0.04,-2.98 0.92,-2.67 3.1,-3.86l50.41 -28.52c3.11,-1.77 16.06,-9.63 18.59,-10.24l18.18 10.25c5.97,3.47 11.83,6.81 17.94,10.26l26.86 15.41c6.48,3.74 8.01,3.3 8.03,6.75l-7.9 0.03 -0.04 -2.82 -15.81 -9.15c-6.49,-3.68 -46.66,-27.06 -47.56,-26.97l-63.63 35.96zm103.81 -27.78l-0.41 7.78c-1.14,-0.71 -0.82,-0.11 -0.85,-2.12l0.05 -12.11c-0.01,-6.92 -1.48,-6.11 5.23,-6.04 0.68,0.92 0.36,0.9 0.8,1.95l1.2 0.16c2.45,-2 -2.13,-2.11 6.09,-2.09l0.22 23.77c-0.15,1.56 -0.27,1.29 -0.66,1.79 -2.61,-3.63 2.92,-18.19 -3.53,-21.62 -2.38,-1.27 -5.01,-0.32 -6.42,0.99 -2.02,1.87 -1.71,4.09 -1.72,7.54zm-92.63 13.24c-0.6,-0.69 -0.22,0.87 -0.57,-1.16l0.14 -24.56 5.35 -0.02c0.56,2.02 -0.42,1.74 1.52,2.11 1.46,-0.8 0.44,-0.33 1.14,-2.08l5.05 0.04c0.64,1.76 0.48,14.87 0.35,18.51 -0.08,2.27 0.32,1.32 -0.9,1.96 -0.05,-0.08 -0.13,-0.3 -0.14,-0.26l-0.28 -12.22c-0.36,-3.2 -4.05,-5.85 -7.54,-4.3 -4.66,2.08 -3.52,8.56 -3.49,15.58 0.01,1.62 0.52,5.2 -0.63,6.4zm570.5 -19.83l-8.46 0.24c0.75,-1.67 11.05,-8.38 11.42,-8.4 1.65,0.47 4.56,2.83 6.03,3.87 1.37,0.96 5.01,2.95 5.65,4.42l-8.38 -0.06c-0.27,-2.85 0.18,-2.99 -1.29,-4.66 -4.84,-0.67 -4.74,0.37 -4.97,4.59zm-152.89 0.1l-8.18 0.12c0.71,-1.68 11.4,-8.48 11.4,-8.48 0.51,-0.03 11.1,7.09 11.69,8.4l-8.4 -0.07c-0.36,-3.05 0.39,-2.8 -1.28,-4.66 -5.22,-0.64 -4.55,0.57 -5.23,4.69zm145.17 -4.11l0.02 -4.74 6.4 0.02c-0.67,1.44 -1.71,1.72 -2.88,2.55 -1.42,1 -1.86,1.59 -3.54,2.17zm-152.73 0.07l-0.03 -4.69 2.36 -0.13 4.18 0.01c-0.66,1.55 -1.85,1.88 -3.09,2.75 -1.26,0.89 -2.04,1.75 -3.42,2.06zm-122.6 -1.4c-0.07,-3.11 0.01,-6.29 0.01,-9.41 0,-1.61 0,-3.23 0,-4.84 -0.01,-1.71 -0.28,-3.31 0.48,-4.6l1.21 0c0.85,1.57 0.43,8.36 0.44,10.24 0.01,3.61 0.78,7.28 -2.14,8.61zm-244.02 2l0.09 -24.63 16.79 -0.02 0.15 23.92c-2.72,-0.56 -6.62,-4.37 -8.69,-3.65 -1.62,0.57 -5.86,3.91 -8.34,4.38zm534.39 -5.41l1.68 -0.01 4.88 0.04 0.05 4.85c-1.35,-0.45 -2.4,-1.38 -3.54,-2.19 -1.52,-1.09 -2.4,-1.23 -3.07,-2.69zm-152.6 0.01l6.49 0.02 0.09 3.63 -0.07 1.21c-1.23,-0.41 -2.38,-1.41 -3.47,-2.18 -1.43,-1.02 -2.47,-1.32 -3.04,-2.68zm-335.76 -0.38c1.35,-0.89 12.22,-0.5 15.26,-0.42 0.28,0.01 0.92,0.03 1.18,0.07 1.25,0.23 0.52,0.12 0.98,0.35 -0.51,1.1 1.17,1 -3.79,0.96l-9.66 0c-5.85,0.04 -3.48,-0.26 -3.97,-0.96zm-91.94 0.4c0.47,-0.9 -1.05,-0.88 3.68,-0.82 3.58,0.05 11.98,-0.59 13.69,0.42 -0.46,1.3 0.91,0.58 -1.16,0.97l-11.72 -0.02c-1.89,0.01 -3.33,0.36 -4.49,-0.55zm583.62 -2.81c0.29,-1.68 -0.38,-1.26 4.41,-1.25 4.7,0.01 4.22,-0.57 4.91,0.84 -0.53,1.31 0.96,0.79 -1.65,1.01 -1.61,0.13 -6.55,0.31 -7.67,-0.6zm-13.15 -0.41c0.72,-1.1 0.07,-0.83 2.22,-0.88 1.03,-0.03 2.2,0.04 3.25,0.04 3.34,-0.01 4.72,-0.52 5.43,0.84 -0.56,1.21 0.47,0.94 -2.17,1l-7.71 -0.07c-1.19,-0.4 -0.34,-0.19 -1.02,-0.93zm-11.55 0c0.62,-1.19 -1.13,-0.84 4.54,-0.86 2.86,-0.01 4.79,-0.57 4.84,0.86 0.05,1.61 -1.53,0.96 -5.24,0.96 -6.3,0.01 -3.41,0 -4.14,-0.96zm-127.75 0c0.69,-1.14 -1.05,-0.85 4.63,-0.84 0.9,0 1.98,-0.06 2.85,-0.04 2.03,0.06 1.47,-0.22 1.97,0.88 -0.41,1.05 1.12,0.99 -4.42,0.97 -7.14,-0.03 -4.21,-0.08 -5.03,-0.97zm-13.14 0c0.53,-1.1 -1.19,-0.81 3.67,-0.83l5.69 -0.07c2.36,0.17 1.14,-0.15 1.62,0.9 -0.52,1.26 -0.46,0.97 -4.09,0.95l-5.28 0.06c-2.91,-0.25 -1.1,-0.33 -1.61,-1.01zm-11.57 0.41c0.22,-1.6 -0.73,-1.24 4.37,-1.25 0.92,0 1.96,-0.07 2.85,-0.06 2.31,0.03 1.56,-0.21 2.12,0.9 -0.56,1.26 1.47,0.98 -4.57,0.97l-3.63 -0.02c-2.09,-0.4 -0.37,0.11 -1.14,-0.54zm-305.72 -2.65l2.45 1.37c0.81,0.74 0.33,0.27 0.8,1.03l-6.51 0.04c0.71,-1.23 1.39,-1.81 3.26,-2.44zm-92.22 0.02c1.71,0.41 2.71,1.18 3.42,2.43l-6.48 0c0.42,-0.76 0.1,-0.66 1.35,-1.54 0.69,-0.48 0.77,-0.51 1.71,-0.89zm96.87 -0.4l13.11 0 0 34.39 -8.82 -0.01 -0.07 -6.77 3.69 -0.1c0.34,4.25 -1.85,1.2 -0.78,4.38 1.94,0.32 5.35,0.77 3.8,-1.73 -1.28,-2.07 -0.67,-2.26 -0.71,-6.61 -0.01,-2.83 0.05,-2.01 1.19,-3.61 -0.75,-2.05 -0.86,-0.14 -1.14,-2.83 -0.19,-1.83 0.03,-2.03 -1.93,-1.88 -0.82,5.77 -0.73,2.14 -1.57,4.71 0.83,1.2 1.67,0.62 1.08,4.81 -1.67,-0.81 -3.33,-2.78 -3.49,-5.6 -0.24,-4.03 1.06,-4.38 3.88,-5.24l-0.15 -1.48c-1.81,-1 -1.95,0.02 -3.84,0.23l0 -3.59 1.91 -0.77 -0.01 -6.62c-1.76,-0.26 -1.54,0.03 -2.06,0.42l-0.44 0.37c-0.05,0.03 -0.16,0.12 -0.25,0.17 -1.56,-0.74 -2.79,-1.41 -3.4,-2.64zm-12.71 2.65c-1.17,-0.49 -2.38,-2.35 -2.77,0l0.02 5.61 1.91 0.66 0 4.08c-1.67,-0.42 -2.49,-1.4 -4.29,-0.67 -0.11,3.68 3.55,0.35 3.7,5.98 0.08,3.19 -1.13,5.8 -3.76,6.09 0.02,-4.36 -0.14,-2.14 1.46,-4.46 -0.43,-1.12 -0.55,-0.87 -1.41,-1.61l-0.44 -2.9 -1.44 -0.18 -0.28 3.19c-0.86,0.73 -0.72,0.22 -1.11,1.5 1.09,1.78 1.28,0.42 1.18,3.6l-8.64 -4.68c0.84,-2.06 2.68,-2.71 2.86,-5.78 0.12,-1.8 -0.49,-5.1 -2.29,-6.2 -2.11,0.8 -1.82,3.23 -5.32,3.77 -0.79,-1.13 -1.2,-2.21 -3.38,-1.83 -0.46,2.87 1.73,0.79 1.46,5.92l-4.88 -2.46 -0.12 -12.29 30.82 -0.02c-0.47,0.85 -0.01,0.32 -0.59,0.91 -0.4,0.41 -0.58,0.46 -0.93,0.69 -0.86,0.57 -1.03,0.69 -1.76,1.08zm-79.4 -2.59l30.39 -0.03 0 12.66c-1.29,1.11 -2.56,1.82 -4.3,2.22l0 -3.6c0.59,-0.42 2.83,-1.91 0.86,-2.57 -1.38,-0.46 -2.45,1.32 -3.06,1.91 -3.68,-0.6 -3.05,-3 -5.3,-3.78 -2.41,2.34 -3.5,7.09 -0.17,10.43 0.05,0.05 0.6,0.59 0.61,0.62 0.47,0.57 0.12,0.06 0.53,0.81l-0.48 0.45c-0.07,0.05 -0.41,0.3 -0.5,0.37 -0.48,0.31 -0.59,0.34 -1.01,0.58 -0.78,0.44 -1.36,0.74 -2.07,1.16 -1.55,0.89 -2.83,1.88 -4.8,2.37 0.03,-2.83 -0.16,-1.72 1.12,-3.72 -0.65,-1.93 -0.56,-0.31 -0.98,-2.05 -0.32,-1.33 0.13,-1.11 -0.46,-2.63l-1.49 0.01c-0.72,1.57 -0.11,1.25 -0.47,2.56 -0.55,1.99 -0.5,-0.07 -1.21,2.11 1.02,1.61 1.37,-0.09 1.27,4.4 -2.56,-0.38 -3.68,-3.04 -3.61,-6.01 0.15,-5.78 4.02,-2.45 3.79,-5.8 -1.83,-1.13 -2.28,-0.1 -4.32,0.33l0.05 -3.79 1.9 -0.95c0.51,-9.87 -1.1,-6.11 -3.15,-5.44l-2.29 -1.62c-0.78,-0.67 -0.38,-0.3 -0.85,-1zm-12.82 2.56c-1.93,-1.47 -2.68,-1.86 -2.69,1.59 -0.03,5.74 0.06,3.64 1.84,4.86l0.07 3.6c-2.48,-0.44 -2.3,-1.34 -3.45,-0.17 -2.24,2.26 3.11,0.42 3.42,5.44 0.16,2.7 -0.81,6.01 -3.62,6.58 -0.02,-4.99 0.08,-2.75 1.25,-4.58 -0.5,-1.41 -0.2,-0.63 -1.21,-1.61 -0.1,-2.2 0.49,-3.16 -1.96,-3.1 -0.37,0.94 -0.15,1.58 -0.42,2.66 -0.36,1.45 -0.57,0.67 -1.18,2.07 1.03,1.16 1.19,0.63 1.27,2.76l-0.02 7.08c-3.06,1.76 0.3,2.82 3.25,1.99 0.72,-3.1 -1.26,0.03 -0.93,-4.18 1.59,-0.11 2.12,-0.23 3.36,0.23l0.3 6.33 -8.97 0.09 0.02 -34.17 13.08 -0.13c-0.61,1.3 -1.37,1.72 -3.41,2.66zm584.44 -3.11l-17.64 0.04c0.1,-6.7 2.11,-7.82 8.68,-7.8 6.53,0.01 8.94,1.01 8.96,7.76zm-160.78 -7.75c5.64,0.01 8.13,0.99 8.1,7.73l-17.61 0.04c0.09,-7.32 2.5,-7.79 9.51,-7.77zm-358.99 5.22c1.68,-1.13 11.06,-0.55 13.06,-0.54l37.89 -0.03c2.12,0.42 0.68,-0.43 1.2,0.98 -1.78,1 -42.9,0.29 -49.17,0.4 -4.43,0.07 -2.4,-0.34 -2.98,-0.81zm-73.15 0.41c0.63,-1.51 0.98,-0.93 5.66,-0.93 2.15,0 4.3,0 6.45,0l36.24 -0.02c1.55,-0.02 2.26,-0.22 3.37,0.54 -0.73,1.29 -2.54,0.8 -5.79,0.79l-42.69 0.01c-2.08,0.03 -2.12,0.25 -3.24,-0.39zm75.72 -3.17c-2.76,0.01 -2.23,-0.22 -2.6,-0.86 0.57,-0.48 -1.2,-0.89 3.01,-0.82l38.27 0.02c2.28,0 4.56,0 6.84,0l5.22 0.03c1.04,0.28 0.44,-0.11 0.91,0.77 -0.44,0.87 0.78,0.89 -2.9,0.84l-48.75 0.02zm-76.89 -0.07c-1.01,-0.28 -0.45,0.06 -0.94,-0.79 0.73,-0.61 -1.1,-0.42 1.3,-0.82 0.06,-0.01 1.46,0 1.63,0 1.21,0.01 2.42,0.01 3.63,0.01l41.08 0.01c1.22,0 2.43,-0.02 3.65,-0.02 2.67,-0.02 2.16,0.17 2.55,0.82 -0.67,1.21 0.68,0.54 -1.33,0.85l-51.57 -0.06zm441.97 -2.24c3.81,0.83 4.97,3.21 5,7.51l-3.25 0.15c0,-3.39 -0.26,-4.79 -1.75,-7.66zm152.5 -0.09c3.44,1.02 4.89,2.83 4.8,7.64l-2.9 0.09c0.03,-1.64 0.12,-3.07 -0.4,-4.59 -0.23,-0.64 -1.34,-2.9 -1.5,-3.14zm-23.55 7.72c0.04,-4.14 1.02,-7.18 5.02,-7.51 -1.22,3.39 -1.81,2.56 -1.87,7.53l-3.15 -0.02zm-149.4 0.02l-2.92 0.01c0.07,-4.41 0.62,-6.97 4.72,-7.52 -1.1,3.03 -2.1,3.02 -1.8,7.51zm162.39 -9.85c-1.2,-1.43 -3.53,-3.79 -1.57,-6.78 2.9,-4.41 0.91,-1.95 2.7,-6.57 1.22,1.24 0.88,1.81 1.4,3.67 1.1,3.87 4.3,3.45 0.3,9.68l-2.83 0zm-152.62 -0.03c-1.58,-1.54 -3.01,-4.04 -1.51,-6.67 2.83,-4.96 1.03,-2.74 2.66,-6.62 0.29,0.34 0.28,0.22 0.59,0.8 0.03,0.07 0.28,0.77 0.32,0.9 0.23,0.78 0.25,1.2 0.45,1.94 1.09,4.03 5.02,3.45 0.29,9.65l-2.8 0zm-378.23 -5.98c0.61,-0.49 -0.41,-0.3 1.28,-0.61l17.75 -0.04c0.31,0.01 0.89,0.02 1.17,0.09 0.99,0.24 0.31,0.07 0.89,0.56 -0.87,0.68 -0.64,0.53 -2.47,0.51 -3.01,-0.03 -17.05,0.68 -18.62,-0.51zm0.47 -2.82c-2.52,0.02 -2.13,-0.11 -2.62,-0.81 0.71,-0.73 -0.86,-1.02 3.04,-0.95l21.36 0.04c1.18,0.36 0.47,-0.14 0.96,0.91 -0.73,1.14 0.54,0.53 -1.35,0.8l-21.39 0.01zm532.77 -11.31c-6.37,0.95 1.27,-6.39 0,0zm-152.82 0.15c-1.3,-0.02 -2.29,0.15 -2.25,-1.32 0.04,-1.29 0.99,-1.28 2.17,-1.27 0.79,1.22 0.72,1.27 0.08,2.59z"></path> <path class="fil1" d="M200.31 231.53c0.66,-1.65 1.6,-2.13 3.2,-3.9 1.64,-1.81 8.33,-9.43 9.78,-10.19 1.37,0.77 5.47,5.6 6.6,6.92 1.76,2.04 5.06,4.8 6,7.17l-25.58 0zm-3.73 2.04c2.7,0.16 31.91,0.7 32.86,-0.13 1.02,-0.9 0.1,-1.87 -0.91,-2.82 -2.7,-2.52 -12.99,-15.39 -15.24,-16.41 -1.26,0.59 -7.48,7.53 -8.86,9.1 -1.46,1.66 -3.04,3.12 -4.49,4.76 -1.05,1.18 -3.93,3.4 -3.36,5.5z"></path> <path class="fil1" d="M356.13 374.98c8.44,-2.62 6.54,3.22 6.59,10.71l-6.92 0.05c-0.06,-3.03 -0.32,-8.32 0.33,-10.76zm-0.35 -5.49c0,-2 -0.31,-3.84 1.13,-4.6 1.41,-0.75 3.96,-0.33 5.13,0.05 0.95,2.19 0.68,4.61 0.67,7.48 -4.08,-0.04 -1.51,-0.95 -2.83,-3.21l-1.21 0.02c-0.85,1.2 -0.18,1.67 -0.77,3.08l-2.1 0.12 -0.02 -2.94zm8.79 18.37c0.75,-3.94 0.18,-13.8 0.21,-18.37 0.02,-3.23 0.04,-5.68 -2.47,-6.82 -2.26,-1.02 -5.86,-0.53 -7.42,1.02 -2.36,2.35 -1.3,12.88 -1.29,17.08 0.01,6.21 -0.79,7.06 1.8,7.23 2.23,0.14 6.95,0.08 9.17,-0.14z"></path> <path class="fil1" d="M483.48 383.58c-0.05,-2.52 -0.59,-6.98 0.77,-8.53 1.43,-0.83 4.33,-0.61 5.78,-0.03 0.73,2.21 0.48,7.81 0.4,10.67l-6.92 0.04 -0.03 -2.15zm0.01 -11.16c0,-5.44 -0.88,-9.73 6.23,-7.49 0.88,1.8 1.18,6.09 0.24,7.54 -3.94,-0.5 -0.25,-2.27 -2.63,-3.2 -1.84,-0.71 -1.18,1.79 -1.62,3.08l-2.22 0.07zm-2.19 -3.74l-0.01 14.5c-0.04,5.37 -1.38,4.78 7.86,4.78 4.4,0 3.48,1.28 3.5,-9.21l-0.01 -9.66c0,-4.51 -0.78,-6.82 -5.5,-6.82 -4.63,0 -5.83,1.61 -5.84,6.41z"></path> <path class="fil1" d="M383.84 374.92c8.11,-2.31 6.57,2.69 6.47,10.83l-6.86 0.01c0,-3.46 -0.45,-7.79 0.39,-10.84zm0.2 -2.45c-0.07,-0.1 -0.13,-0.24 -0.17,-0.32l-0.38 -5.11c0.27,-2.21 1.11,-2.54 3.37,-2.55 4.74,-0.03 3.43,3.75 3.48,7.99 -4.14,-0.36 -1.36,-0.52 -2.76,-3.28l-1.35 0.08c-1.1,2.5 0.88,2.81 -2.19,3.19zm-2.76 1.45c0,1.33 -0.3,12.85 0.41,13.61 0.69,0.74 1.8,0.45 3.56,0.44l7.1 -0.08 0.17 -18.8c-0.01,-2.72 0.05,-4.41 -1.51,-5.76 -1.3,-1.11 -4.21,-1.48 -6.43,-0.89 -4.3,1.13 -3.3,6.8 -3.3,11.48z"></path> <path class="fil1" d="M462.36 374.93c0.83,2.82 0.38,7.51 0.37,10.83l-6.81 -0.02c-0.06,-2.59 -0.22,-6.12 -0.06,-8.64 0.13,-2.02 0.29,-2.36 2.24,-2.56 1.43,-0.14 3.2,0.08 4.26,0.39zm-6.46 -6.65c-0.01,-1.95 0.05,-3.07 1.54,-3.56 7.42,-2.48 5.32,6.97 4.73,7.75 -3.17,-0.44 -0.97,-0.73 -2.15,-3.26l-1.38 0.01c-1.1,2.54 0.94,2.83 -2.11,3.23 -0.56,-0.67 -0.18,0.07 -0.5,-0.99l-0.13 -3.18zm-2.16 -0.4l0.12 19.94 10.9 0.05 0.15 -19.19c0,-4.3 -0.77,-6.35 -5.15,-6.42 -4.38,-0.08 -6.03,1.33 -6.02,5.62z"></path> <path class="fil1" d="M181.12 237.4l-0.1 1.67c2.9,0.55 48.56,0.21 56.43,0.19 1.74,0 7.03,0.76 7.1,-1.08 0.08,-1.93 -5.02,-1.14 -6.69,-1.14 -9.14,0 -55.12,-0.41 -56.74,0.36z"></path> <path class="fil1" d="M655.1 222.94c7.56,-1.27 6.11,0.92 6.12,9.23 0,2.88 0.23,7.53 -0.15,10.01l-6.72 0.01c-0.17,-3.78 -0.57,-16.66 0.75,-19.25zm-2.73 21.21c2.54,0.21 6.15,0.19 8.8,0.14 2.26,-0.04 2.21,0.24 2.25,-2.01 0.08,-4.99 0.75,-18.62 -1.13,-20.56 -1.38,-1.41 -5,-1.79 -7.45,-1.03 -2.58,0.8 -2.66,3.09 -2.63,6.24 0.05,4.93 -0.46,12.66 0.16,17.22z"></path> <path class="fil1" d="M578.19 349.35l0.04 -11.16 6.72 -0.11 0.09 15.72 -6.85 0 0 -4.45zm8.98 -13.44c-1.51,-0.22 -9.84,-0.49 -10.71,0.1 -0.6,0.41 -1.37,19.26 0.26,19.94 1.35,0.56 9.21,0.33 10.16,-0.22 1.03,-0.92 0.39,-19.3 0.29,-19.82z"></path> <path class="fil1" d="M730.69 338.05l6.62 0.08 -0.06 15.69 -6.71 0.03 0.15 -15.8zm-2.61 1.63l0.16 15.98c1.5,0.71 6.39,0.43 8.58,0.43 3.84,0 2.75,-1.18 2.74,-5.13l-0.02 -15.08 -10.99 -0.07 -0.47 3.87z"></path> <path class="fil1" d="M731.82 376.29l4.16 0.03 0.06 3.59 -4.22 0.09 0 -3.71zm0.01 -6.01c1.66,-0.04 2.69,-0.19 3.92,0.27 0.46,1.2 0.29,1.87 0.3,3.41l-4.28 0.1 0.06 -3.78zm-2.43 0.01l-0.01 9.67c-0.01,2.57 0.54,2.25 2.99,2.23 6.81,-0.06 5.89,0.97 5.9,-5.05 0.03,-10.42 1.71,-9.2 -6.73,-9.05 -1.94,0.04 -2.14,0.27 -2.15,2.2z"></path> <path class="fil1" d="M579.64 376.26l4.27 0.06 -0.04 3.66 -4.28 0 0.05 -3.72zm0.03 -6.02l4.2 0.06 0.08 3.73 -4.39 0.01 0.11 -3.8zm-2.08 11.88c2.17,0.16 6.53,0.64 8.11,-0.22 0.86,-0.76 0.43,-4.92 0.43,-6.37 0,-2.33 0.08,-4.83 -0.09,-7.13l-8.65 -0.19c-0.14,2.66 -0.37,11.88 0.2,13.91z"></path> <path class="fil1" d="M209.88 196.39c-0.15,-7.12 -1.01,-9.98 2.6,-9.99 2.92,-0.01 2.68,1.33 2.64,3.87 -0.02,2.03 0.05,4.07 -0.06,6.11l-5.18 0.01zm-2.39 -3.69l0.18 5.88 9.45 0.07c0.39,-7.79 1.94,-14.25 -4.22,-14.4 -5.96,-0.14 -5.42,3.06 -5.41,8.45z"></path> <path class="fil1" d="M471.35 250.08l4.56 0.12 -0.08 6.54 -4.46 0 -0.02 -6.66zm6.65 -1.94c-1.09,-0.25 -6.24,-0.36 -7.41,-0.23 -1.49,0.16 -1.4,0.2 -1.45,1.93 -0.18,5.69 -0.78,8.87 1.93,9.1 8.49,0.74 7.01,-0.52 7,-5.43 0,-1.79 0.06,-3.58 -0.07,-5.37z"></path> <path class="fil1" d="M209.69 227.33c0.55,-1.39 2.29,-3.25 3.6,-3.82 1.13,0.84 2.77,2.63 3.21,3.84l-6.81 -0.02zm-3.98 1.98c1.23,0.19 13.41,0.62 14.24,-0.04 0.24,-0.26 0.84,0.66 0.37,-1.31 -0.09,-0.41 -0.57,-0.9 -0.83,-1.17 -1.02,-1.06 -1.28,-1.27 -2.14,-2.3 -1.02,-1.22 -2.9,-3.54 -4.06,-4.17 -1.72,0.66 -2.97,2.6 -4.24,3.98 -2.42,2.65 -3.46,2.92 -3.34,5.01z"></path> <path class="fil1" d="M735.96 219.64l-2.39 1c-1.02,-0.98 -2.76,-2.86 -0.6,-4.1 2.44,-1.39 3.37,0.8 2.99,3.1zm-3.78 -5.13c-2.13,1.08 -3.07,2.95 -2.08,5.46 0.86,2.16 3.2,3.45 6.06,2.24 4.58,-1.94 1.66,-10.55 -3.98,-7.7z"></path> <path class="fil1" d="M579.43 218.88c-0.55,-2.75 3.43,-3.97 4.04,-1.16 0.69,3.21 -3.58,3.42 -4.04,1.16zm0.43 -4.45c-5.28,2.08 -2.15,10.17 3.35,7.88 4.74,-1.96 2.5,-10.19 -3.35,-7.88z"></path> <path class="fil1" d="M734.41 235.01c0.04,0.06 0.66,-0.38 0.45,0.84 -0.26,1.49 0.31,0.35 -0.86,0.9 -0.44,-0.56 -0.85,0.79 -0.52,-0.96 0.28,-1.47 -0.16,-0.43 0.93,-0.78zm-3.23 -1.88c-1.47,5.74 0.49,6.64 5.82,5.66 0.26,-1.35 0.66,-4.86 -0.31,-5.71 -1.09,-0.73 -4.27,-0.53 -5.51,0.05z"></path> <path class="fil1" d="M581.71 235.07c1.07,0.32 0.35,-0.33 0.64,1.12 -0.06,0.05 0.32,1.11 -1.3,0.4 -1.13,-0.5 -0.26,-1.79 0.66,-1.52zm-3.16 -1.95c-0.27,0.99 -0.52,4.66 0.13,5.4 0.9,1.02 4.31,0.53 5.7,0.27 0.26,-1.62 0.58,-4.63 -0.33,-5.66 -0.92,-0.87 -4.36,-0.5 -5.5,-0.01z"></path> <path class="fil1" d="M542.12 279.9c2.9,1.25 2.32,-2.39 1.94,-4.8 -1.48,-0.43 -1.84,-0.52 -2.06,0.95 -0.11,0.76 0.03,3.03 0.12,3.85z"></path> <path class="fil1" d="M315.58 288.54c-0.25,0.94 -0.38,2.39 -0.28,3.65 0.13,1.64 0.4,1.74 2.09,1.38 0.21,-1.54 0.66,-6.76 -1.81,-5.03z"></path> <path class="fil1" d="M294.39 293.53c0.47,-3.06 0.67,-5.28 -1.53,-5.14 -0.64,1.22 -0.61,1.78 -0.55,3.4 0.07,1.77 0.21,2.26 2.08,1.74z"></path> <path class="fil1" d="M530.44 280.24c2.1,0.12 2.03,-1.08 1.65,-5.25l-1.79 -0.11c-0.46,1.49 -0.5,3.84 0.14,5.36z"></path> <path class="fil1" d="M328.35 293.66c0.1,-0.99 0.53,-7.73 -1.73,-4.99 -0.38,0.45 -0.4,2.7 -0.34,3.46 0.13,1.74 0.27,1.73 2.07,1.53z"></path> <path class="fil1" d="M303.31 290.56c0.01,2.51 -0.45,3.39 2.09,3.08 0.07,-1.01 0.32,-4.17 -0.13,-4.91 -0.86,-1.41 -1.96,0.11 -1.96,1.83z"></path> <path class="fil1" d="M519.05 276.87l0 0.8c0.02,2.07 0.03,3.25 2.07,2.19l0.07 -4.76c-2.04,-0.6 -2.15,-0.08 -2.14,1.77z"></path> <path class="fil1" d="M552.94 277.67c-0.27,3.62 3.07,4.45 2.06,-2.65l-1.73 -0.13 -0.33 2.78z"></path> <path class="fil1" d="M485.89 174.21l0.25 0.01 0 -0.04c21.58,-0.01 43.57,0.61 65.06,0.06 1,-0.02 2,-0.05 2.98,-0.07l0 2.24 -68.29 0 0 -2.2z"></path> <path class="fil1" d="M501.17 175.67l0.01 -0.08 -2.76 -1.05 -0.2 -5.37c3.58,-2.32 15.63,-6.91 20.13,-8.75 0.83,-0.71 2.15,0.09 2.15,0.09l18.27 7.71c0.97,0.7 1.79,-0.11 1.5,6.41l-1.8 0.42c-0.09,0.04 -0.24,0.12 -0.31,0.15l-0.59 0.39 0.01 0.08 -2.35 0c-0.08,-1.13 0.61,-0.82 -3.25,-0.83 -2.15,0 -2.51,-0.52 -2.81,0.83l-2.37 0 0 -0.21 -14.97 0.09 0 0.12 -2.32 0c-0.44,-1.37 -1.23,-0.84 -3.31,-0.83 -2,0 -2.33,-0.37 -2.68,0.83l-2.35 0zm10.65 -4.62l14.98 -0.12 0.06 1.85c-0.89,0.59 0.94,0.18 -1.31,0.5 -0.38,0.06 -1.57,0.02 -2.02,0.02l-11.73 -0.05 0.02 -2.2zm17.33 1.32l-0.03 -1.21c1.36,-0.62 7.58,-0.61 8.94,0l0.05 1.21c-1.12,0.56 -7.82,0.63 -8.96,0zm-28.67 -0.4c0.49,-1.26 -1.46,-1 4.52,-1.02 0.77,0 1.72,-0.08 2.45,-0.06 2.71,0.07 1.63,-0.15 2.2,1.08 -0.67,1.01 0.59,0.67 -1.79,0.82l-5.31 -0.01c-2.8,-0.04 -1.43,-0.25 -2.07,-0.81zm31.79 -3.37l-25.9 -0.03c0.8,-1.09 -0.44,-0.47 3.01,-1.9 1.01,-0.42 2,-0.86 3.12,-1.33 9.35,-3.94 4.9,-3.54 16.47,1.16 0.59,0.25 1.25,0.44 1.72,0.66 2.13,0.99 0.68,-0.16 1.58,1.44z"></path> <path class="fil1" d="M191.82 173.83l-0.2 -5.37c3.58,-2.32 15.63,-6.91 20.12,-8.75 0.84,-0.71 2.16,0.09 2.16,0.09l18.27 7.71c0.97,0.7 1.79,-0.11 1.5,6.41 -11.49,0.15 -11.18,0.07 -41.85,-0.09zm13.4 -3.49l14.98 -0.12 0.06 1.84c-0.89,0.6 0.94,0.19 -1.31,0.51 -0.38,0.06 -1.57,0.02 -2.02,0.02l-11.73 -0.06 0.02 -2.19zm17.33 1.32l-0.03 -1.21c1.36,-0.63 7.57,-0.61 8.94,0l0.04 1.21c-1.11,0.56 -7.81,0.63 -8.95,0zm-28.67 -0.4c0.49,-1.26 -1.46,-1 4.52,-1.02 0.77,0 1.71,-0.08 2.45,-0.06 2.7,0.07 1.62,-0.15 2.19,1.08 -0.67,1.01 0.59,0.67 -1.78,0.82l-5.31 -0.01c-2.81,-0.04 -1.44,-0.25 -2.07,-0.81zm31.79 -3.37l-25.9 -0.03c0.79,-1.09 -0.44,-0.47 3.01,-1.9 1.01,-0.42 2,-0.86 3.11,-1.33 9.35,-3.93 4.91,-3.54 16.47,1.16 0.6,0.25 1.26,0.44 1.73,0.66 2.13,0.99 0.68,-0.16 1.58,1.44z"></path> </g> <path class="fil2 str0" d="M760 114.66c-104,-97.66 -233.19,12.61 -233.19,-114.66l0 0"></path> </g> </svg> 